<?xml version="1.0" encoding="UTF-8" standalone="no"?><svg xmlns="http://www.w3.org/2000/svg" xmlns:xlink="http://www.w3.org/1999/xlink" contentScriptType="application/ecmascript" contentStyleType="text/css" height="265px" preserveAspectRatio="none" style="width:381px;height:265px;" version="1.1" viewBox="0 0 381 265" width="381px" zoomAndPan="magnify"><defs><filter height="300%" id="fmx4txa1z5hu2" width="300%" x="-1" y="-1"><feGaussianBlur result="blurOut" stdDeviation="2.0"/><feColorMatrix in="blurOut" result="blurOut2" type="matrix" values="0 0 0 0 0 0 0 0 0 0 0 0 0 0 0 0 0 0 .4 0"/><feOffset dx="4.0" dy="4.0" in="blurOut2" result="blurOut3"/><feBlend in="SourceGraphic" in2="blurOut3" mode="normal"/></filter></defs><g><!--MD5=[342c04256829bcce7571957e4612d96b]
cluster com.kamshanski.blepositioning.model.methods--><polygon fill="#FFFFFF" filter="url(#fmx4txa1z5hu2)" points="16,6,354,6,361,29.6094,364,29.6094,364,258,16,258,16,6" style="stroke:#000000;stroke-width:1.5;"/><line style="stroke:#000000;stroke-width:1.5;" x1="16" x2="361" y1="29.6094" y2="29.6094"/><text fill="#000000" font-family="sans-serif" font-size="14" font-weight="bold" lengthAdjust="spacing" textLength="332" x="20" y="22.5332">com.kamshanski.blepositioning.model.methods</text><!--MD5=[23652da2a4954cc27467bdecbf2cb5c0]
class com.kamshanski.blepositioning.model.methods.Positioning--><rect codeLine="2" fill="#FEFECE" filter="url(#fmx4txa1z5hu2)" height="200.1953" id="com.kamshanski.blepositioning.model.methods.Positioning" style="stroke:#A80036;stroke-width:1.5;" width="297" x="41.5" y="42"/><ellipse cx="154.75" cy="58" fill="#ADD1B2" rx="11" ry="11" style="stroke:#A80036;stroke-width:1.0;"/><path d="M156.75,54.5 Q156.9531,54 157.1875,53.75 Q157.4219,53.5 157.6875,53.5 Q158.1563,53.5 158.4531,53.7813 Q158.75,54.0625 158.75,54.7188 L158.75,56.2813 Q158.75,56.9375 158.4688,57.2188 Q158.1875,57.5 157.75,57.5 Q157.3594,57.5 157.1094,57.3281 Q156.8594,57.1563 156.75,56.7031 Q156.7031,56.3906 156.5313,56.2188 Q156.2188,55.8906 155.6563,55.7031 Q155.0938,55.5 154.5313,55.5 Q153.8281,55.5 153.2344,55.7813 Q152.6563,56.0625 152.2031,56.6875 Q151.75,57.3125 151.75,58.1719 L151.75,59.0938 Q151.75,60.125 152.5938,60.8125 Q153.4375,61.5 154.9375,61.5 Q155.8281,61.5 156.4531,61.2969 Q156.8125,61.1875 157.2188,60.8281 Q157.4844,60.625 157.625,60.5625 Q157.7656,60.5 157.9375,60.5 Q158.2656,60.5 158.5,60.7656 Q158.75,61.0156 158.75,61.375 Q158.75,61.7188 158.4063,62.125 Q157.9063,62.7188 157.1094,63.0469 Q156.0625,63.5 154.7813,63.5 Q153.2813,63.5 152.0781,62.9063 Q151.1094,62.4375 150.4219,61.4219 Q149.75,60.4063 149.75,59.2031 L149.75,58.1094 Q149.75,56.8594 150.3438,55.7656 Q150.9531,54.6719 152,54.0938 Q153.0625,53.5 154.25,53.5 Q154.9688,53.5 155.5938,53.75 Q156.2188,54 156.75,54.5 Z " fill="#000000"/><text fill="#000000" font-family="sans-serif" font-size="12" lengthAdjust="spacing" textLength="62" x="175.25" y="62.9102">Positioning</text><line style="stroke:#A80036;stroke-width:1.5;" x1="42.5" x2="337.5" y1="74" y2="74"/><polygon fill="none" points="52.5,81,48.5,87,56.5,87" style="stroke:#1963A0;stroke-width:1.0;"/><text fill="#000000" font-family="sans-serif" font-size="11" lengthAdjust="spacing" textLength="160" x="61.5" y="89.4189">NiceFilter rssiFiltersBunchSample</text><polygon fill="none" points="52.5,94.8359,48.5,100.8359,56.5,100.8359" style="stroke:#1963A0;stroke-width:1.0;"/><text fill="#000000" font-family="sans-serif" font-size="11" lengthAdjust="spacing" textLength="191" x="61.5" y="103.2549">HashMap&lt;Beacon,NiceFilter&gt; rssiFilters</text><polygon fill="none" points="52.5,108.6719,48.5,114.6719,56.5,114.6719" style="stroke:#1963A0;stroke-width:1.0;"/><text fill="#000000" font-family="sans-serif" font-size="11" lengthAdjust="spacing" textLength="243" x="61.5" y="117.0908">HashMap&lt;Beacon,MeanVariance&gt; meanFunctions</text><polygon fill="none" points="52.5,122.5078,48.5,128.5078,56.5,128.5078" style="stroke:#1963A0;stroke-width:1.0;"/><text fill="#000000" font-family="sans-serif" font-size="11" lengthAdjust="spacing" textLength="271" x="61.5" y="130.9268">HashMap&lt;Beacon,DistanceFunction&gt; distanceFunctions</text><polygon fill="none" points="52.5,136.3438,48.5,142.3438,56.5,142.3438" style="stroke:#1963A0;stroke-width:1.0;"/><text fill="#000000" font-family="sans-serif" font-size="11" lengthAdjust="spacing" textLength="148" x="61.5" y="144.7627">Estimator coordinatesEstimator</text><polygon fill="none" points="52.5,150.1797,48.5,156.1797,56.5,156.1797" style="stroke:#1963A0;stroke-width:1.0;"/><text fill="#000000" font-family="sans-serif" font-size="11" lengthAdjust="spacing" textLength="86" x="61.5" y="158.5986">FilterBunch xFilter</text><polygon fill="none" points="52.5,164.0156,48.5,170.0156,56.5,170.0156" style="stroke:#1963A0;stroke-width:1.0;"/><text fill="#000000" font-family="sans-serif" font-size="11" lengthAdjust="spacing" textLength="88" x="61.5" y="172.4346">boolean meanFirst</text><ellipse cx="52.5" cy="181.8516" rx="3" ry="3" style="stroke:#038048;stroke-width:1.0;fill:none;"/><text fill="#000000" font-family="sans-serif" font-size="11" lengthAdjust="spacing" textLength="129" x="61.5" y="186.2705">PositioningStorage storage</text><rect fill="none" height="6" style="stroke:#C82930;stroke-width:1.0;" width="6" x="49.5" y="192.6875"/><text fill="#000000" font-family="sans-serif" font-size="11" lengthAdjust="spacing" textLength="78" x="61.5" y="200.1064">StringBuilder log</text><line style="stroke:#A80036;stroke-width:1.5;" x1="42.5" x2="337.5" y1="206.5234" y2="206.5234"/><ellipse cx="52.5" cy="217.5234" fill="#84BE84" rx="3" ry="3" style="stroke:#038048;stroke-width:1.0;"/><text fill="#000000" font-family="sans-serif" font-size="11" lengthAdjust="spacing" textLength="211" x="61.5" y="221.9424">Dimensions of(HashMap&lt;Beacon,double[]&gt;)</text><ellipse cx="52.5" cy="231.3594" fill="#84BE84" rx="3" ry="3" style="stroke:#038048;stroke-width:1.0;"/><text fill="#000000" font-family="sans-serif" font-size="11" lengthAdjust="spacing" textLength="72" x="61.5" y="235.7783">String getLog()</text><!--MD5=[400a3180fb23f437a4f9b93c94e1e3ef]
@startuml

class com.kamshanski.blepositioning.model.methods.Positioning {
~ NiceFilter rssiFiltersBunchSample
~ HashMap<Beacon,NiceFilter> rssiFilters
~ HashMap<Beacon,MeanVariance> meanFunctions
~ HashMap<Beacon,DistanceFunction> distanceFunctions
~ Estimator coordinatesEstimator
~ FilterBunch xFilter
~ boolean meanFirst
+ PositioningStorage storage
- StringBuilder log
+ Dimensions of(HashMap<Beacon,double[]>)
+ String getLog()
}

@enduml

PlantUML version 1.2021.2(Sun Mar 07 18:10:27 GMT+07:00 2021)
(GPL source distribution)
Java Runtime: OpenJDK Runtime Environment
JVM: OpenJDK 64-Bit Server VM
Default Encoding: Cp1251
Language: ru
Country: RU
--></g></svg>