<?xml version="1.0" encoding="UTF-8" standalone="no"?><svg xmlns="http://www.w3.org/2000/svg" xmlns:xlink="http://www.w3.org/1999/xlink" contentScriptType="application/ecmascript" contentStyleType="text/css" height="318px" preserveAspectRatio="none" style="width:345px;height:318px;" version="1.1" viewBox="0 0 345 318" width="345px" zoomAndPan="magnify"><defs><filter height="300%" id="f1bfnew9sevjg8" width="300%" x="-1" y="-1"><feGaussianBlur result="blurOut" stdDeviation="2.0"/><feColorMatrix in="blurOut" result="blurOut2" type="matrix" values="0 0 0 0 0 0 0 0 0 0 0 0 0 0 0 0 0 0 .4 0"/><feOffset dx="4.0" dy="4.0" in="blurOut2" result="blurOut3"/><feBlend in="SourceGraphic" in2="blurOut3" mode="normal"/></filter></defs><g><!--MD5=[060f3f66a46e90b44a0acee31900809f]
cluster model.methods.solvers.classificators--><polygon fill="#FFFFFF" filter="url(#f1bfnew9sevjg8)" points="16,6,284,6,291,29.6094,328,29.6094,328,311,16,311,16,6" style="stroke:#000000;stroke-width:1.5;"/><line style="stroke:#000000;stroke-width:1.5;" x1="16" x2="291" y1="29.6094" y2="29.6094"/><text fill="#000000" font-family="sans-serif" font-size="14" font-weight="bold" lengthAdjust="spacing" textLength="262" x="20" y="22.5332">model.methods.solvers.classificators</text><!--MD5=[e5689209a845780406dd9d499b2b2c6c]
class model.methods.solvers.classificators.Classificator--><rect codeLine="3" fill="#FEFECE" filter="url(#f1bfnew9sevjg8)" height="117.1797" id="model.methods.solvers.classificators.Classificator" style="stroke:#A80036;stroke-width:1.5;" width="99" x="136.5" y="42"/><ellipse cx="151.5" cy="58" fill="#A9DCDF" rx="11" ry="11" style="stroke:#A80036;stroke-width:1.0;"/><path d="M153.25,59.5 L149.9531,59.5 L149.5156,60.5 L149.5156,60.5 L149.9844,60.5 L150.5,61.125 L150.5,61.5 L150.5,61.875 L149.9844,62.5 L149.5156,62.5 L147.625,62.5 L147.0156,62.5 L146.5,61.875 L146.5,61.5 L146.5,61.125 L147.0156,60.5 L147.625,60.5 L149.9375,54.5 L149.0625,54.5 L148.0156,54.5 L147.5,53.875 L147.5,53.5 L147.5,53.125 L148.0156,52.5 L149.0625,52.5 L152.7344,52.5 L155.4219,60.5 L155.9844,60.5 L155.9844,60.5 L156.5,61.125 L156.5,61.5 L156.5,61.875 L155.9844,62.5 L155.4219,62.5 L153.5313,62.5 L153.0156,62.5 L152.5,61.875 L152.5,61.5 L152.5,61.125 L153.0156,60.5 L153.5313,60.5 L153.5313,60.5 L153.25,59.5 Z M152.7031,57.5 L151.5,53.9219 L150.4688,57.5 L152.7031,57.5 Z " fill="#000000"/><text fill="#000000" font-family="sans-serif" font-size="12" font-style="italic" lengthAdjust="spacing" textLength="67" x="165.5" y="62.9102">Classificator</text><line style="stroke:#A80036;stroke-width:1.5;" x1="137.5" x2="234.5" y1="74" y2="74"/><polygon fill="none" points="147.5,81,143.5,87,151.5,87" style="stroke:#1963A0;stroke-width:1.0;"/><text fill="#000000" font-family="sans-serif" font-size="11" lengthAdjust="spacing" textLength="70" x="156.5" y="89.4189">input : double[]</text><line style="stroke:#A80036;stroke-width:1.5;" x1="137.5" x2="234.5" y1="95.8359" y2="95.8359"/><ellipse cx="147.5" cy="106.8359" fill="#84BE84" rx="3" ry="3" style="stroke:#038048;stroke-width:1.0;"/><text fill="#000000" font-family="sans-serif" font-size="11" lengthAdjust="spacing" textLength="48" x="156.5" y="111.2549">estimate()</text><ellipse cx="147.5" cy="120.6719" fill="#84BE84" rx="3" ry="3" style="stroke:#038048;stroke-width:1.0;"/><text fill="#000000" font-family="sans-serif" font-size="11" lengthAdjust="spacing" textLength="45" x="156.5" y="125.0908">toString()</text><polygon fill="#4177AF" points="147.5,130.5078,143.5,136.5078,151.5,136.5078" style="stroke:#1963A0;stroke-width:1.0;"/><text fill="#000000" font-family="sans-serif" font-size="11" font-style="italic" lengthAdjust="spacing" textLength="57" x="156.5" y="138.9268">computeX()</text><polygon fill="#4177AF" points="147.5,144.3438,143.5,150.3438,151.5,150.3438" style="stroke:#1963A0;stroke-width:1.0;"/><text fill="#000000" font-family="sans-serif" font-size="11" font-style="italic" lengthAdjust="spacing" textLength="57" x="156.5" y="152.7627">computeY()</text><!--MD5=[15e96b019160ae1c9948fa15914c10a8]
class model.methods.solvers.classificators.RandomForestMedian--><rect codeLine="13" fill="#FEFECE" filter="url(#f1bfnew9sevjg8)" height="75.6719" id="model.methods.solvers.classificators.RandomForestMedian" style="stroke:#A80036;stroke-width:1.5;" width="155" x="32.5" y="219"/><ellipse cx="47.5" cy="235" fill="#ADD1B2" rx="11" ry="11" style="stroke:#A80036;stroke-width:1.0;"/><path d="M49.5,231.5 Q49.7031,231 49.9375,230.75 Q50.1719,230.5 50.4375,230.5 Q50.9063,230.5 51.2031,230.7813 Q51.5,231.0625 51.5,231.7188 L51.5,233.2813 Q51.5,233.9375 51.2188,234.2188 Q50.9375,234.5 50.5,234.5 Q50.1094,234.5 49.8594,234.3281 Q49.6094,234.1563 49.5,233.7031 Q49.4531,233.3906 49.2813,233.2188 Q48.9688,232.8906 48.4063,232.7031 Q47.8438,232.5 47.2813,232.5 Q46.5781,232.5 45.9844,232.7813 Q45.4063,233.0625 44.9531,233.6875 Q44.5,234.3125 44.5,235.1719 L44.5,236.0938 Q44.5,237.125 45.3438,237.8125 Q46.1875,238.5 47.6875,238.5 Q48.5781,238.5 49.2031,238.2969 Q49.5625,238.1875 49.9688,237.8281 Q50.2344,237.625 50.375,237.5625 Q50.5156,237.5 50.6875,237.5 Q51.0156,237.5 51.25,237.7656 Q51.5,238.0156 51.5,238.375 Q51.5,238.7188 51.1563,239.125 Q50.6563,239.7188 49.8594,240.0469 Q48.8125,240.5 47.5313,240.5 Q46.0313,240.5 44.8281,239.9063 Q43.8594,239.4375 43.1719,238.4219 Q42.5,237.4063 42.5,236.2031 L42.5,235.1094 Q42.5,233.8594 43.0938,232.7656 Q43.7031,231.6719 44.75,231.0938 Q45.8125,230.5 47,230.5 Q47.7188,230.5 48.3438,230.75 Q48.9688,231 49.5,231.5 Z " fill="#000000"/><text fill="#000000" font-family="sans-serif" font-size="12" lengthAdjust="spacing" textLength="123" x="61.5" y="239.9102">RandomForestMedian</text><line style="stroke:#A80036;stroke-width:1.5;" x1="33.5" x2="186.5" y1="251" y2="251"/><line style="stroke:#A80036;stroke-width:1.5;" x1="33.5" x2="186.5" y1="259" y2="259"/><polygon fill="#4177AF" points="43.5,266,39.5,272,47.5,272" style="stroke:#1963A0;stroke-width:1.0;"/><text fill="#000000" font-family="sans-serif" font-size="11" lengthAdjust="spacing" textLength="56" x="52.5" y="274.4189">computeX()</text><polygon fill="#4177AF" points="43.5,279.8359,39.5,285.8359,47.5,285.8359" style="stroke:#1963A0;stroke-width:1.0;"/><text fill="#000000" font-family="sans-serif" font-size="11" lengthAdjust="spacing" textLength="57" x="52.5" y="288.2549">computeY()</text><!--MD5=[fb8dd40b691d3b0cef8f2dc250ae5235]
class model.methods.solvers.classificators.SvrMedian--><rect codeLine="20" fill="#FEFECE" filter="url(#f1bfnew9sevjg8)" height="75.6719" id="model.methods.solvers.classificators.SvrMedian" style="stroke:#A80036;stroke-width:1.5;" width="89" x="222.5" y="219"/><ellipse cx="237.5" cy="235" fill="#ADD1B2" rx="11" ry="11" style="stroke:#A80036;stroke-width:1.0;"/><path d="M239.5,231.5 Q239.7031,231 239.9375,230.75 Q240.1719,230.5 240.4375,230.5 Q240.9063,230.5 241.2031,230.7813 Q241.5,231.0625 241.5,231.7188 L241.5,233.2813 Q241.5,233.9375 241.2188,234.2188 Q240.9375,234.5 240.5,234.5 Q240.1094,234.5 239.8594,234.3281 Q239.6094,234.1563 239.5,233.7031 Q239.4531,233.3906 239.2813,233.2188 Q238.9688,232.8906 238.4063,232.7031 Q237.8438,232.5 237.2813,232.5 Q236.5781,232.5 235.9844,232.7813 Q235.4063,233.0625 234.9531,233.6875 Q234.5,234.3125 234.5,235.1719 L234.5,236.0938 Q234.5,237.125 235.3438,237.8125 Q236.1875,238.5 237.6875,238.5 Q238.5781,238.5 239.2031,238.2969 Q239.5625,238.1875 239.9688,237.8281 Q240.2344,237.625 240.375,237.5625 Q240.5156,237.5 240.6875,237.5 Q241.0156,237.5 241.25,237.7656 Q241.5,238.0156 241.5,238.375 Q241.5,238.7188 241.1563,239.125 Q240.6563,239.7188 239.8594,240.0469 Q238.8125,240.5 237.5313,240.5 Q236.0313,240.5 234.8281,239.9063 Q233.8594,239.4375 233.1719,238.4219 Q232.5,237.4063 232.5,236.2031 L232.5,235.1094 Q232.5,233.8594 233.0938,232.7656 Q233.7031,231.6719 234.75,231.0938 Q235.8125,230.5 237,230.5 Q237.7188,230.5 238.3438,230.75 Q238.9688,231 239.5,231.5 Z " fill="#000000"/><text fill="#000000" font-family="sans-serif" font-size="12" lengthAdjust="spacing" textLength="57" x="251.5" y="239.9102">SvrMedian</text><line style="stroke:#A80036;stroke-width:1.5;" x1="223.5" x2="310.5" y1="251" y2="251"/><line style="stroke:#A80036;stroke-width:1.5;" x1="223.5" x2="310.5" y1="259" y2="259"/><polygon fill="#4177AF" points="233.5,266,229.5,272,237.5,272" style="stroke:#1963A0;stroke-width:1.0;"/><text fill="#000000" font-family="sans-serif" font-size="11" lengthAdjust="spacing" textLength="56" x="242.5" y="274.4189">computeX()</text><polygon fill="#4177AF" points="233.5,279.8359,229.5,285.8359,237.5,285.8359" style="stroke:#1963A0;stroke-width:1.0;"/><text fill="#000000" font-family="sans-serif" font-size="11" lengthAdjust="spacing" textLength="57" x="242.5" y="288.2549">computeY()</text><!--MD5=[e07e4bb24c7f9b2b6d65d87c32d7e980]
reverse link model.methods.solvers.classificators.Classificator to model.methods.solvers.classificators.RandomForestMedian--><path codeLine="30" d="M148.81,177.1 C141.72,191.52 134.59,206.01 128.41,218.58 " fill="none" id="model.methods.solvers.classificators.Classificator-backto-model.methods.solvers.classificators.RandomForestMedian" style="stroke:#A80036;stroke-width:1.0;"/><polygon fill="none" points="142.59,173.89,157.7,159.03,155.15,180.07,142.59,173.89" style="stroke:#A80036;stroke-width:1.0;"/><!--MD5=[dd23cef4ff044005039d013ebc83276f]
reverse link model.methods.solvers.classificators.Classificator to model.methods.solvers.classificators.SvrMedian--><path codeLine="31" d="M225.64,177.1 C233.19,191.52 240.79,206.01 247.38,218.58 " fill="none" id="model.methods.solvers.classificators.Classificator-backto-model.methods.solvers.classificators.SvrMedian" style="stroke:#A80036;stroke-width:1.0;"/><polygon fill="none" points="219.25,179.99,216.16,159.03,231.65,173.49,219.25,179.99" style="stroke:#A80036;stroke-width:1.0;"/><!--MD5=[8579d7f4a01969129a130b18578e5d85]
@startuml

    namespace model.methods.solvers.classificators {
          abstract class model.methods.solvers.classificators.Classificator {
              ~ input : double[]
              + estimate()
              + toString()
              {abstract} ~ computeX()
              {abstract} ~ computeY()
          }
        }
        
    namespace model.methods.solvers.classificators {
          class model.methods.solvers.classificators.RandomForestMedian {
              ~ computeX()
              ~ computeY()
          }
        }
  
    namespace model.methods.solvers.classificators {
          class model.methods.solvers.classificators.SvrMedian {
              ~ computeX()
              ~ computeY()
          }
        }
      
  


  
model.methods.solvers.classificators.RandomForestMedian -up-|> model.methods.solvers.classificators.Classificator
model.methods.solvers.classificators.SvrMedian -up-|> model.methods.solvers.classificators.Classificator



@enduml

PlantUML version 1.2021.2(Sun Mar 07 18:10:27 GMT+07:00 2021)
(GPL source distribution)
Java Runtime: OpenJDK Runtime Environment
JVM: OpenJDK 64-Bit Server VM
Default Encoding: Cp1251
Language: ru
Country: RU
--></g></svg>