<?xml version="1.0" encoding="UTF-8" standalone="no"?><svg xmlns="http://www.w3.org/2000/svg" xmlns:xlink="http://www.w3.org/1999/xlink" contentScriptType="application/ecmascript" contentStyleType="text/css" height="456px" preserveAspectRatio="none" style="width:637px;height:456px;" version="1.1" viewBox="0 0 637 456" width="637px" zoomAndPan="magnify"><defs><filter height="300%" id="f12t398j9iu0oe" width="300%" x="-1" y="-1"><feGaussianBlur result="blurOut" stdDeviation="2.0"/><feColorMatrix in="blurOut" result="blurOut2" type="matrix" values="0 0 0 0 0 0 0 0 0 0 0 0 0 0 0 0 0 0 .4 0"/><feOffset dx="4.0" dy="4.0" in="blurOut2" result="blurOut3"/><feBlend in="SourceGraphic" in2="blurOut3" mode="normal"/></filter></defs><g><!--MD5=[5d4cd377749310b66bf14896f5cd8d9b]
cluster model--><polygon fill="#FFFFFF" filter="url(#f12t398j9iu0oe)" points="16,6,65,6,72,29.6094,620,29.6094,620,449,16,449,16,6" style="stroke:#000000;stroke-width:1.5;"/><line style="stroke:#000000;stroke-width:1.5;" x1="16" x2="72" y1="29.6094" y2="29.6094"/><text fill="#000000" font-family="sans-serif" font-size="14" font-weight="bold" lengthAdjust="spacing" textLength="43" x="20" y="22.5332">model</text><!--MD5=[d3a869d1d13e328aef0efbcbbca594e8]
cluster model.storage--><polygon fill="#FFFFFF" filter="url(#f12t398j9iu0oe)" points="40,50,100,50,107,73.6094,596,73.6094,596,275,40,275,40,50" style="stroke:#000000;stroke-width:1.5;"/><line style="stroke:#000000;stroke-width:1.5;" x1="40" x2="107" y1="73.6094" y2="73.6094"/><text fill="#000000" font-family="sans-serif" font-size="14" font-weight="bold" lengthAdjust="spacing" textLength="54" x="44" y="66.5332">storage</text><!--MD5=[85dcde9f2c424395083176eb5a88bee8]
cluster model.core--><polygon fill="#FFFFFF" filter="url(#f12t398j9iu0oe)" points="310,325,348,325,355,348.6094,577,348.6094,577,425,310,425,310,325" style="stroke:#000000;stroke-width:1.5;"/><line style="stroke:#000000;stroke-width:1.5;" x1="310" x2="355" y1="348.6094" y2="348.6094"/><text fill="#000000" font-family="sans-serif" font-size="14" font-weight="bold" lengthAdjust="spacing" textLength="32" x="314" y="341.5332">core</text><!--MD5=[9a6fa481902eee8c518be8035cdca398]
cluster methods.filters--><polygon fill="#FFFFFF" filter="url(#f12t398j9iu0oe)" points="144,325,256,325,263,348.6094,270,348.6094,270,425,144,425,144,325" style="stroke:#000000;stroke-width:1.5;"/><line style="stroke:#000000;stroke-width:1.5;" x1="144" x2="263" y1="348.6094" y2="348.6094"/><text fill="#000000" font-family="sans-serif" font-size="14" font-weight="bold" lengthAdjust="spacing" textLength="106" x="148" y="341.5332">methods.filters</text><!--MD5=[49c7ed0c14f6ea5a950d1f40c26006a1]
class model.storage.NiceStorage--><rect codeLine="7" fill="#FEFECE" filter="url(#f12t398j9iu0oe)" height="172.5234" id="model.storage.NiceStorage" style="stroke:#A80036;stroke-width:1.5;" width="301" x="56.5" y="86"/><ellipse cx="168.75" cy="102" fill="#ADD1B2" rx="11" ry="11" style="stroke:#A80036;stroke-width:1.0;"/><path d="M170.75,98.5 Q170.9531,98 171.1875,97.75 Q171.4219,97.5 171.6875,97.5 Q172.1563,97.5 172.4531,97.7813 Q172.75,98.0625 172.75,98.7188 L172.75,100.2813 Q172.75,100.9375 172.4688,101.2188 Q172.1875,101.5 171.75,101.5 Q171.3594,101.5 171.1094,101.3281 Q170.8594,101.1563 170.75,100.7031 Q170.7031,100.3906 170.5313,100.2188 Q170.2188,99.8906 169.6563,99.7031 Q169.0938,99.5 168.5313,99.5 Q167.8281,99.5 167.2344,99.7813 Q166.6563,100.0625 166.2031,100.6875 Q165.75,101.3125 165.75,102.1719 L165.75,103.0938 Q165.75,104.125 166.5938,104.8125 Q167.4375,105.5 168.9375,105.5 Q169.8281,105.5 170.4531,105.2969 Q170.8125,105.1875 171.2188,104.8281 Q171.4844,104.625 171.625,104.5625 Q171.7656,104.5 171.9375,104.5 Q172.2656,104.5 172.5,104.7656 Q172.75,105.0156 172.75,105.375 Q172.75,105.7188 172.4063,106.125 Q171.9063,106.7188 171.1094,107.0469 Q170.0625,107.5 168.7813,107.5 Q167.2813,107.5 166.0781,106.9063 Q165.1094,106.4375 164.4219,105.4219 Q163.75,104.4063 163.75,103.2031 L163.75,102.1094 Q163.75,100.8594 164.3438,99.7656 Q164.9531,98.6719 166,98.0938 Q167.0625,97.5 168.25,97.5 Q168.9688,97.5 169.5938,97.75 Q170.2188,98 170.75,98.5 Z " fill="#000000"/><text fill="#000000" font-family="sans-serif" font-size="12" lengthAdjust="spacing" textLength="68" x="189.25" y="106.9102">NiceStorage</text><line style="stroke:#A80036;stroke-width:1.5;" x1="57.5" x2="356.5" y1="118" y2="118"/><ellipse cx="67.5" cy="129" rx="3" ry="3" style="stroke:#038048;stroke-width:1.0;fill:none;"/><text fill="#000000" font-family="sans-serif" font-size="11" lengthAdjust="spacing" textLength="186" x="76.5" y="133.4189">filters : HashMap&lt;Integer, FilterBunch&gt;</text><ellipse cx="67.5" cy="142.8359" rx="3" ry="3" style="stroke:#038048;stroke-width:1.0;fill:none;"/><text fill="#000000" font-family="sans-serif" font-size="11" lengthAdjust="spacing" textLength="187" x="76.5" y="147.2549">lastPack : HashMap&lt;Beacon, double[]&gt;</text><ellipse cx="67.5" cy="156.6719" rx="3" ry="3" style="stroke:#038048;stroke-width:1.0;fill:none;"/><text fill="#000000" font-family="sans-serif" font-size="11" lengthAdjust="spacing" textLength="73" x="76.5" y="161.0908">maxLength : int</text><ellipse cx="67.5" cy="170.5078" rx="3" ry="3" style="stroke:#038048;stroke-width:1.0;fill:none;"/><text fill="#000000" font-family="sans-serif" font-size="11" lengthAdjust="spacing" textLength="63" x="76.5" y="174.9268">name : String</text><ellipse cx="67.5" cy="184.3438" rx="3" ry="3" style="stroke:#038048;stroke-width:1.0;fill:none;"/><text fill="#000000" font-family="sans-serif" font-size="11" lengthAdjust="spacing" textLength="275" x="76.5" y="188.7627">storage : LinkedHashMap&lt;Beacon, LinkedList&lt;double[]&gt;&gt;</text><line style="stroke:#A80036;stroke-width:1.5;" x1="57.5" x2="356.5" y1="195.1797" y2="195.1797"/><ellipse cx="67.5" cy="206.1797" fill="#84BE84" rx="3" ry="3" style="stroke:#038048;stroke-width:1.0;"/><text fill="#000000" font-family="sans-serif" font-size="11" lengthAdjust="spacing" textLength="67" x="76.5" y="210.5986">NiceStorage()</text><ellipse cx="67.5" cy="220.0156" fill="#84BE84" rx="3" ry="3" style="stroke:#038048;stroke-width:1.0;"/><text fill="#000000" font-family="sans-serif" font-size="11" lengthAdjust="spacing" textLength="26" x="76.5" y="224.4346">add()</text><ellipse cx="67.5" cy="233.8516" fill="#84BE84" rx="3" ry="3" style="stroke:#038048;stroke-width:1.0;"/><text fill="#000000" font-family="sans-serif" font-size="11" lengthAdjust="spacing" textLength="49" x="76.5" y="238.2705">compute()</text><ellipse cx="67.5" cy="247.6875" fill="#84BE84" rx="3" ry="3" style="stroke:#038048;stroke-width:1.0;"/><text fill="#000000" font-family="sans-serif" font-size="11" lengthAdjust="spacing" textLength="73" x="76.5" y="252.1064">getLastPacks()</text><!--MD5=[7c8301eb8cf7d08576a9770a2f9a0344]
class model.storage.PositioningStorage--><rect codeLine="24" fill="#FEFECE" filter="url(#f12t398j9iu0oe)" height="117.1797" id="model.storage.PositioningStorage" style="stroke:#A80036;stroke-width:1.5;" width="187" x="392.5" y="114"/><ellipse cx="430" cy="130" fill="#ADD1B2" rx="11" ry="11" style="stroke:#A80036;stroke-width:1.0;"/><path d="M432,126.5 Q432.2031,126 432.4375,125.75 Q432.6719,125.5 432.9375,125.5 Q433.4063,125.5 433.7031,125.7813 Q434,126.0625 434,126.7188 L434,128.2813 Q434,128.9375 433.7188,129.2188 Q433.4375,129.5 433,129.5 Q432.6094,129.5 432.3594,129.3281 Q432.1094,129.1563 432,128.7031 Q431.9531,128.3906 431.7813,128.2188 Q431.4688,127.8906 430.9063,127.7031 Q430.3438,127.5 429.7813,127.5 Q429.0781,127.5 428.4844,127.7813 Q427.9063,128.0625 427.4531,128.6875 Q427,129.3125 427,130.1719 L427,131.0938 Q427,132.125 427.8438,132.8125 Q428.6875,133.5 430.1875,133.5 Q431.0781,133.5 431.7031,133.2969 Q432.0625,133.1875 432.4688,132.8281 Q432.7344,132.625 432.875,132.5625 Q433.0156,132.5 433.1875,132.5 Q433.5156,132.5 433.75,132.7656 Q434,133.0156 434,133.375 Q434,133.7188 433.6563,134.125 Q433.1563,134.7188 432.3594,135.0469 Q431.3125,135.5 430.0313,135.5 Q428.5313,135.5 427.3281,134.9063 Q426.3594,134.4375 425.6719,133.4219 Q425,132.4063 425,131.2031 L425,130.1094 Q425,128.8594 425.5938,127.7656 Q426.2031,126.6719 427.25,126.0938 Q428.3125,125.5 429.5,125.5 Q430.2188,125.5 430.8438,125.75 Q431.4688,126 432,126.5 Z " fill="#000000"/><text fill="#000000" font-family="sans-serif" font-size="12" lengthAdjust="spacing" textLength="105" x="449" y="134.9102">PositioningStorage</text><line style="stroke:#A80036;stroke-width:1.5;" x1="393.5" x2="578.5" y1="146" y2="146"/><rect fill="none" height="6" style="stroke:#C82930;stroke-width:1.0;" width="6" x="400.5" y="154"/><text fill="#000000" font-family="sans-serif" font-size="11" lengthAdjust="spacing" textLength="161" x="412.5" y="161.4189">storage : LinkedList&lt;Dimensions&gt;</text><line style="stroke:#A80036;stroke-width:1.5;" x1="393.5" x2="578.5" y1="167.8359" y2="167.8359"/><ellipse cx="403.5" cy="178.8359" fill="#84BE84" rx="3" ry="3" style="stroke:#038048;stroke-width:1.0;"/><text fill="#000000" font-family="sans-serif" font-size="11" lengthAdjust="spacing" textLength="97" x="412.5" y="183.2549">PositioningStorage()</text><ellipse cx="403.5" cy="192.6719" fill="#84BE84" rx="3" ry="3" style="stroke:#038048;stroke-width:1.0;"/><text fill="#000000" font-family="sans-serif" font-size="11" lengthAdjust="spacing" textLength="23" x="412.5" y="197.0908">get()</text><ellipse cx="403.5" cy="206.5078" fill="#84BE84" rx="3" ry="3" style="stroke:#038048;stroke-width:1.0;"/><text fill="#000000" font-family="sans-serif" font-size="11" lengthAdjust="spacing" textLength="44" x="412.5" y="210.9268">getLast()</text><ellipse cx="403.5" cy="220.3438" fill="#84BE84" rx="3" ry="3" style="stroke:#038048;stroke-width:1.0;"/><text fill="#000000" font-family="sans-serif" font-size="11" lengthAdjust="spacing" textLength="23" x="412.5" y="224.7627">put()</text><!--MD5=[036a5e50a69a1a977d1ab01856d1ff09]
class model.core.Dimensions--><rect fill="#FEFECE" filter="url(#f12t398j9iu0oe)" height="48" id="model.core.Dimensions" style="stroke:#A80036;stroke-width:1.5;" width="100" x="326" y="361"/><ellipse cx="341" cy="377" fill="#ADD1B2" rx="11" ry="11" style="stroke:#A80036;stroke-width:1.0;"/><path d="M343,373.5 Q343.2031,373 343.4375,372.75 Q343.6719,372.5 343.9375,372.5 Q344.4063,372.5 344.7031,372.7813 Q345,373.0625 345,373.7188 L345,375.2813 Q345,375.9375 344.7188,376.2188 Q344.4375,376.5 344,376.5 Q343.6094,376.5 343.3594,376.3281 Q343.1094,376.1563 343,375.7031 Q342.9531,375.3906 342.7813,375.2188 Q342.4688,374.8906 341.9063,374.7031 Q341.3438,374.5 340.7813,374.5 Q340.0781,374.5 339.4844,374.7813 Q338.9063,375.0625 338.4531,375.6875 Q338,376.3125 338,377.1719 L338,378.0938 Q338,379.125 338.8438,379.8125 Q339.6875,380.5 341.1875,380.5 Q342.0781,380.5 342.7031,380.2969 Q343.0625,380.1875 343.4688,379.8281 Q343.7344,379.625 343.875,379.5625 Q344.0156,379.5 344.1875,379.5 Q344.5156,379.5 344.75,379.7656 Q345,380.0156 345,380.375 Q345,380.7188 344.6563,381.125 Q344.1563,381.7188 343.3594,382.0469 Q342.3125,382.5 341.0313,382.5 Q339.5313,382.5 338.3281,381.9063 Q337.3594,381.4375 336.6719,380.4219 Q336,379.4063 336,378.2031 L336,377.1094 Q336,375.8594 336.5938,374.7656 Q337.2031,373.6719 338.25,373.0938 Q339.3125,372.5 340.5,372.5 Q341.2188,372.5 341.8438,372.75 Q342.4688,373 343,373.5 Z " fill="#000000"/><text fill="#000000" font-family="sans-serif" font-size="12" lengthAdjust="spacing" textLength="68" x="355" y="381.9102">Dimensions</text><line style="stroke:#A80036;stroke-width:1.5;" x1="327" x2="425" y1="393" y2="393"/><line style="stroke:#A80036;stroke-width:1.5;" x1="327" x2="425" y1="401" y2="401"/><!--MD5=[384c6f6149e8184e8fc88d4f9de2efd1]
class model.core.MacAddress--><rect fill="#FEFECE" filter="url(#f12t398j9iu0oe)" height="48" id="model.core.MacAddress" style="stroke:#A80036;stroke-width:1.5;" width="100" x="461" y="361"/><ellipse cx="476" cy="377" fill="#ADD1B2" rx="11" ry="11" style="stroke:#A80036;stroke-width:1.0;"/><path d="M478,373.5 Q478.2031,373 478.4375,372.75 Q478.6719,372.5 478.9375,372.5 Q479.4063,372.5 479.7031,372.7813 Q480,373.0625 480,373.7188 L480,375.2813 Q480,375.9375 479.7188,376.2188 Q479.4375,376.5 479,376.5 Q478.6094,376.5 478.3594,376.3281 Q478.1094,376.1563 478,375.7031 Q477.9531,375.3906 477.7813,375.2188 Q477.4688,374.8906 476.9063,374.7031 Q476.3438,374.5 475.7813,374.5 Q475.0781,374.5 474.4844,374.7813 Q473.9063,375.0625 473.4531,375.6875 Q473,376.3125 473,377.1719 L473,378.0938 Q473,379.125 473.8438,379.8125 Q474.6875,380.5 476.1875,380.5 Q477.0781,380.5 477.7031,380.2969 Q478.0625,380.1875 478.4688,379.8281 Q478.7344,379.625 478.875,379.5625 Q479.0156,379.5 479.1875,379.5 Q479.5156,379.5 479.75,379.7656 Q480,380.0156 480,380.375 Q480,380.7188 479.6563,381.125 Q479.1563,381.7188 478.3594,382.0469 Q477.3125,382.5 476.0313,382.5 Q474.5313,382.5 473.3281,381.9063 Q472.3594,381.4375 471.6719,380.4219 Q471,379.4063 471,378.2031 L471,377.1094 Q471,375.8594 471.5938,374.7656 Q472.2031,373.6719 473.25,373.0938 Q474.3125,372.5 475.5,372.5 Q476.2188,372.5 476.8438,372.75 Q477.4688,373 478,373.5 Z " fill="#000000"/><text fill="#000000" font-family="sans-serif" font-size="12" lengthAdjust="spacing" textLength="68" x="490" y="381.9102">MacAddress</text><line style="stroke:#A80036;stroke-width:1.5;" x1="462" x2="560" y1="393" y2="393"/><line style="stroke:#A80036;stroke-width:1.5;" x1="462" x2="560" y1="401" y2="401"/><!--MD5=[da3b5927e754b166e11bc469e9d9b8d4]
class model.methods.filters.FilterBunch--><rect fill="#FEFECE" filter="url(#f12t398j9iu0oe)" height="48" id="model.methods.filters.FilterBunch" style="stroke:#A80036;stroke-width:1.5;" width="94" x="160" y="361"/><ellipse cx="175" cy="377" fill="#ADD1B2" rx="11" ry="11" style="stroke:#A80036;stroke-width:1.0;"/><path d="M177,373.5 Q177.2031,373 177.4375,372.75 Q177.6719,372.5 177.9375,372.5 Q178.4063,372.5 178.7031,372.7813 Q179,373.0625 179,373.7188 L179,375.2813 Q179,375.9375 178.7188,376.2188 Q178.4375,376.5 178,376.5 Q177.6094,376.5 177.3594,376.3281 Q177.1094,376.1563 177,375.7031 Q176.9531,375.3906 176.7813,375.2188 Q176.4688,374.8906 175.9063,374.7031 Q175.3438,374.5 174.7813,374.5 Q174.0781,374.5 173.4844,374.7813 Q172.9063,375.0625 172.4531,375.6875 Q172,376.3125 172,377.1719 L172,378.0938 Q172,379.125 172.8438,379.8125 Q173.6875,380.5 175.1875,380.5 Q176.0781,380.5 176.7031,380.2969 Q177.0625,380.1875 177.4688,379.8281 Q177.7344,379.625 177.875,379.5625 Q178.0156,379.5 178.1875,379.5 Q178.5156,379.5 178.75,379.7656 Q179,380.0156 179,380.375 Q179,380.7188 178.6563,381.125 Q178.1563,381.7188 177.3594,382.0469 Q176.3125,382.5 175.0313,382.5 Q173.5313,382.5 172.3281,381.9063 Q171.3594,381.4375 170.6719,380.4219 Q170,379.4063 170,378.2031 L170,377.1094 Q170,375.8594 170.5938,374.7656 Q171.2031,373.6719 172.25,373.0938 Q173.3125,372.5 174.5,372.5 Q175.2188,372.5 175.8438,372.75 Q176.4688,373 177,373.5 Z " fill="#000000"/><text fill="#000000" font-family="sans-serif" font-size="12" lengthAdjust="spacing" textLength="62" x="189" y="381.9102">FilterBunch</text><line style="stroke:#A80036;stroke-width:1.5;" x1="161" x2="253" y1="393" y2="393"/><line style="stroke:#A80036;stroke-width:1.5;" x1="161" x2="253" y1="401" y2="401"/><!--MD5=[b802e1c45c200fea47b50b34243ab791]
reverse link model.storage.NiceStorage to model.methods.filters.FilterBunch--><path codeLine="41" d="M207,272.19 C207,305.21 207,339.09 207,360.77 " fill="none" id="model.storage.NiceStorage-backto-model.methods.filters.FilterBunch" style="stroke:#A80036;stroke-width:1.0;"/><polygon fill="#FFFFFF" points="207,259.12,203,265.12,207,271.12,211,265.12,207,259.12" style="stroke:#A80036;stroke-width:1.0;"/><text fill="#000000" font-family="sans-serif" font-size="13" lengthAdjust="spacing" textLength="68" x="208" y="305.4951">filterSample</text><!--MD5=[2871ad0675c9cba5dee83a54e11e5499]
reverse link model.storage.PositioningStorage to model.core.Dimensions--><path codeLine="42" d="M449.91,242.57 C428.57,283.4 402.9,332.51 388.12,360.81 " fill="none" id="model.storage.PositioningStorage-backto-model.core.Dimensions" style="stroke:#A80036;stroke-width:1.0;"/><polygon fill="#FFFFFF" points="455.94,231.02,449.6133,234.4801,450.3739,241.651,456.7006,238.1909,455.94,231.02" style="stroke:#A80036;stroke-width:1.0;"/><text fill="#000000" font-family="sans-serif" font-size="13" lengthAdjust="spacing" textLength="51" x="425" y="305.4951">lastPack</text><!--MD5=[96088470ae3f7f5b7bbd4ef7af4628ef]
reverse link model.storage.PositioningStorage to model.core.MacAddress--><path codeLine="43" d="M494.39,244.15 C499.2,284.66 504.93,332.88 508.25,360.81 " fill="none" id="model.storage.PositioningStorage-backto-model.core.MacAddress" style="stroke:#A80036;stroke-width:1.0;"/><polygon fill="#FFFFFF" points="492.83,231.02,489.5708,237.4526,494.2551,242.9351,497.5142,236.5025,492.83,231.02" style="stroke:#A80036;stroke-width:1.0;"/><text fill="#000000" font-family="sans-serif" font-size="13" lengthAdjust="spacing" textLength="33" x="502" y="305.4951">target</text><!--MD5=[c56c9f0c36b7377ff4807a2f2b8ebf72]
@startuml


  

    namespace model {
      namespace storage {
        class model.storage.NiceStorage {
            + filters : HashMap<Integer, FilterBunch>
            + lastPack : HashMap<Beacon, double[]>
            + maxLength : int
            + name : String
            + storage : LinkedHashMap<Beacon, LinkedList<double[]>>
            + NiceStorage()
            + add()
            + compute()
            + getLastPacks()
        }
      }
    }
  

    namespace model {
      namespace storage {
        class model.storage.PositioningStorage {
            - storage : LinkedList<Dimensions>
            + PositioningStorage()
            + get()
            + getLast()
            + put()
        }
      }
    }
    namespace model {
        namespace core {

        }
        namespace methods.filters {

                }
    }
  model.storage.NiceStorage o- - model.methods.filters.FilterBunch : filterSample
  model.storage.PositioningStorage o- - model.core.Dimensions : lastPack
  model.storage.PositioningStorage o- - model.core.MacAddress : target


@enduml

PlantUML version 1.2021.2(Sun Mar 07 18:10:27 GMT+07:00 2021)
(GPL source distribution)
Java Runtime: OpenJDK Runtime Environment
JVM: OpenJDK 64-Bit Server VM
Default Encoding: Cp1251
Language: ru
Country: RU
--></g></svg>