<?xml version="1.0" encoding="UTF-8" standalone="no"?><svg xmlns="http://www.w3.org/2000/svg" xmlns:xlink="http://www.w3.org/1999/xlink" contentScriptType="application/ecmascript" contentStyleType="text/css" height="373px" preserveAspectRatio="none" style="width:199px;height:373px;" version="1.1" viewBox="0 0 199 373" width="199px" zoomAndPan="magnify"><defs><filter height="300%" id="fig0ef9vldr5y" width="300%" x="-1" y="-1"><feGaussianBlur result="blurOut" stdDeviation="2.0"/><feColorMatrix in="blurOut" result="blurOut2" type="matrix" values="0 0 0 0 0 0 0 0 0 0 0 0 0 0 0 0 0 0 .4 0"/><feOffset dx="4.0" dy="4.0" in="blurOut2" result="blurOut3"/><feBlend in="SourceGraphic" in2="blurOut3" mode="normal"/></filter></defs><g><!--MD5=[12df7cde6be7a1502f39b98891c2252e]
cluster model.methods.mean--><polygon fill="#FFFFFF" filter="url(#fig0ef9vldr5y)" points="16,6,172,6,179,29.6094,182,29.6094,182,366,16,366,16,6" style="stroke:#000000;stroke-width:1.5;"/><line style="stroke:#000000;stroke-width:1.5;" x1="16" x2="179" y1="29.6094" y2="29.6094"/><text fill="#000000" font-family="sans-serif" font-size="14" font-weight="bold" lengthAdjust="spacing" textLength="150" x="20" y="22.5332">model.methods.mean</text><!--MD5=[b32a449b7feb8ae57ea96dd244989197]
class model.methods.mean.Mean--><rect codeLine="2" fill="#FEFECE" filter="url(#fig0ef9vldr5y)" height="131.0156" id="model.methods.mean.Mean" style="stroke:#A80036;stroke-width:1.5;" width="104" x="47" y="42"/><ellipse cx="80.9" cy="58" fill="#ADD1B2" rx="11" ry="11" style="stroke:#A80036;stroke-width:1.0;"/><path d="M82.9,54.5 Q83.1031,54 83.3375,53.75 Q83.5719,53.5 83.8375,53.5 Q84.3063,53.5 84.6031,53.7813 Q84.9,54.0625 84.9,54.7188 L84.9,56.2813 Q84.9,56.9375 84.6188,57.2188 Q84.3375,57.5 83.9,57.5 Q83.5094,57.5 83.2594,57.3281 Q83.0094,57.1563 82.9,56.7031 Q82.8531,56.3906 82.6813,56.2188 Q82.3688,55.8906 81.8063,55.7031 Q81.2438,55.5 80.6813,55.5 Q79.9781,55.5 79.3844,55.7813 Q78.8063,56.0625 78.3531,56.6875 Q77.9,57.3125 77.9,58.1719 L77.9,59.0938 Q77.9,60.125 78.7438,60.8125 Q79.5875,61.5 81.0875,61.5 Q81.9781,61.5 82.6031,61.2969 Q82.9625,61.1875 83.3688,60.8281 Q83.6344,60.625 83.775,60.5625 Q83.9156,60.5 84.0875,60.5 Q84.4156,60.5 84.65,60.7656 Q84.9,61.0156 84.9,61.375 Q84.9,61.7188 84.5563,62.125 Q84.0563,62.7188 83.2594,63.0469 Q82.2125,63.5 80.9313,63.5 Q79.4313,63.5 78.2281,62.9063 Q77.2594,62.4375 76.5719,61.4219 Q75.9,60.4063 75.9,59.2031 L75.9,58.1094 Q75.9,56.8594 76.4938,55.7656 Q77.1031,54.6719 78.15,54.0938 Q79.2125,53.5 80.4,53.5 Q81.1188,53.5 81.7438,53.75 Q82.3688,54 82.9,54.5 Z " fill="#000000"/><text fill="#000000" font-family="sans-serif" font-size="12" lengthAdjust="spacing" textLength="30" x="99.1" y="62.9102">Mean</text><line style="stroke:#A80036;stroke-width:1.5;" x1="48" x2="150" y1="74" y2="74"/><polygon fill="none" points="58,81,54,87,62,87" style="stroke:#1963A0;stroke-width:1.0;"/><text fill="#000000" font-family="sans-serif" font-size="11" lengthAdjust="spacing" textLength="67" x="67" y="89.4189">mean : double</text><line style="stroke:#A80036;stroke-width:1.5;" x1="48" x2="150" y1="95.8359" y2="95.8359"/><ellipse cx="58" cy="106.8359" fill="#84BE84" rx="3" ry="3" style="stroke:#038048;stroke-width:1.0;"/><text fill="#000000" font-family="sans-serif" font-size="11" lengthAdjust="spacing" textLength="34" x="67" y="111.2549">Mean()</text><ellipse cx="58" cy="120.6719" fill="#84BE84" rx="3" ry="3" style="stroke:#038048;stroke-width:1.0;"/><text fill="#000000" font-family="sans-serif" font-size="11" lengthAdjust="spacing" textLength="51" x="67" y="125.0908">calculate()</text><ellipse cx="58" cy="134.5078" fill="#84BE84" rx="3" ry="3" style="stroke:#038048;stroke-width:1.0;"/><text fill="#000000" font-family="sans-serif" font-size="11" lengthAdjust="spacing" textLength="70" x="67" y="138.9268">getLastMean()</text><ellipse cx="58" cy="148.3438" fill="#84BE84" rx="3" ry="3" style="stroke:#038048;stroke-width:1.0;"/><text fill="#000000" font-family="sans-serif" font-size="11" lengthAdjust="spacing" textLength="78" x="67" y="152.7627">makeTheSame()</text><ellipse cx="58" cy="162.1797" fill="#84BE84" rx="3" ry="3" style="stroke:#038048;stroke-width:1.0;"/><text fill="#000000" font-family="sans-serif" font-size="11" lengthAdjust="spacing" text-decoration="underline" textLength="34" x="67" y="166.5986">mean()</text><!--MD5=[d579d2b9719dd91b4927ffb6f2ebfbbf]
class model.methods.mean.MeanVariance--><rect codeLine="11" fill="#FEFECE" filter="url(#fig0ef9vldr5y)" height="117.1797" id="model.methods.mean.MeanVariance" style="stroke:#A80036;stroke-width:1.5;" width="110" x="44" y="233"/><ellipse cx="59" cy="249" fill="#ADD1B2" rx="11" ry="11" style="stroke:#A80036;stroke-width:1.0;"/><path d="M61,245.5 Q61.2031,245 61.4375,244.75 Q61.6719,244.5 61.9375,244.5 Q62.4063,244.5 62.7031,244.7813 Q63,245.0625 63,245.7188 L63,247.2813 Q63,247.9375 62.7188,248.2188 Q62.4375,248.5 62,248.5 Q61.6094,248.5 61.3594,248.3281 Q61.1094,248.1563 61,247.7031 Q60.9531,247.3906 60.7813,247.2188 Q60.4688,246.8906 59.9063,246.7031 Q59.3438,246.5 58.7813,246.5 Q58.0781,246.5 57.4844,246.7813 Q56.9063,247.0625 56.4531,247.6875 Q56,248.3125 56,249.1719 L56,250.0938 Q56,251.125 56.8438,251.8125 Q57.6875,252.5 59.1875,252.5 Q60.0781,252.5 60.7031,252.2969 Q61.0625,252.1875 61.4688,251.8281 Q61.7344,251.625 61.875,251.5625 Q62.0156,251.5 62.1875,251.5 Q62.5156,251.5 62.75,251.7656 Q63,252.0156 63,252.375 Q63,252.7188 62.6563,253.125 Q62.1563,253.7188 61.3594,254.0469 Q60.3125,254.5 59.0313,254.5 Q57.5313,254.5 56.3281,253.9063 Q55.3594,253.4375 54.6719,252.4219 Q54,251.4063 54,250.2031 L54,249.1094 Q54,247.8594 54.5938,246.7656 Q55.2031,245.6719 56.25,245.0938 Q57.3125,244.5 58.5,244.5 Q59.2188,244.5 59.8438,244.75 Q60.4688,245 61,245.5 Z " fill="#000000"/><text fill="#000000" font-family="sans-serif" font-size="12" lengthAdjust="spacing" textLength="78" x="73" y="253.9102">MeanVariance</text><line style="stroke:#A80036;stroke-width:1.5;" x1="45" x2="153" y1="265" y2="265"/><polygon fill="none" points="55,272,51,278,59,278" style="stroke:#1963A0;stroke-width:1.0;"/><text fill="#000000" font-family="sans-serif" font-size="11" lengthAdjust="spacing" textLength="83" x="64" y="280.4189">variance : double</text><line style="stroke:#A80036;stroke-width:1.5;" x1="45" x2="153" y1="286.8359" y2="286.8359"/><ellipse cx="55" cy="297.8359" fill="#84BE84" rx="3" ry="3" style="stroke:#038048;stroke-width:1.0;"/><text fill="#000000" font-family="sans-serif" font-size="11" lengthAdjust="spacing" textLength="78" x="64" y="302.2549">MeanVariance()</text><ellipse cx="55" cy="311.6719" fill="#84BE84" rx="3" ry="3" style="stroke:#038048;stroke-width:1.0;"/><text fill="#000000" font-family="sans-serif" font-size="11" lengthAdjust="spacing" textLength="51" x="64" y="316.0908">calculate()</text><ellipse cx="55" cy="325.5078" fill="#84BE84" rx="3" ry="3" style="stroke:#038048;stroke-width:1.0;"/><text fill="#000000" font-family="sans-serif" font-size="11" lengthAdjust="spacing" text-decoration="underline" textLength="50" x="64" y="329.9268">variance()</text><ellipse cx="55" cy="339.3438" fill="#84BE84" rx="3" ry="3" style="stroke:#038048;stroke-width:1.0;"/><text fill="#000000" font-family="sans-serif" font-size="11" lengthAdjust="spacing" text-decoration="underline" textLength="50" x="64" y="343.7627">variance()</text><!--MD5=[c8f7c590784e8397c42719c9bd180ec3]
reverse link model.methods.mean.Mean to model.methods.mean.MeanVariance--><path codeLine="20" d="M99,193.29 C99,206.74 99,220.36 99,232.99 " fill="none" id="model.methods.mean.Mean-backto-model.methods.mean.MeanVariance" style="stroke:#A80036;stroke-width:1.0;"/><polygon fill="none" points="92,193.18,99,173.18,106,193.18,92,193.18" style="stroke:#A80036;stroke-width:1.0;"/><!--MD5=[7952aaf04fdc25107592933570f02bff]
@startuml

        class model.methods.mean.Mean {
            ~ mean : double
            + Mean()
            + calculate()
            + getLastMean()
            + makeTheSame()
            {static} + mean()
        }

        class model.methods.mean.MeanVariance {
            ~ variance : double
            + MeanVariance()
            + calculate()
            {static} + variance()
            {static} + variance()
        }


  model.methods.mean.MeanVariance -up-|> model.methods.mean.Mean

@enduml

PlantUML version 1.2021.2(Sun Mar 07 18:10:27 GMT+07:00 2021)
(GPL source distribution)
Java Runtime: OpenJDK Runtime Environment
JVM: OpenJDK 64-Bit Server VM
Default Encoding: Cp1251
Language: ru
Country: RU
--></g></svg>