<?xml version="1.0" encoding="UTF-8" standalone="no"?><svg xmlns="http://www.w3.org/2000/svg" xmlns:xlink="http://www.w3.org/1999/xlink" contentScriptType="application/ecmascript" contentStyleType="text/css" height="363.6px" preserveAspectRatio="none" style="width:432px;height:363px;" version="1.1" viewBox="0 0 432 363" width="432.9px" zoomAndPan="magnify"><defs><filter height="300%" id="fjwg8ghb8x2ii" width="300%" x="-1" y="-1"><feGaussianBlur result="blurOut" stdDeviation="1.8"/><feColorMatrix in="blurOut" result="blurOut2" type="matrix" values="0 0 0 0 0 0 0 0 0 0 0 0 0 0 0 0 0 0 .4 0"/><feOffset dx="3.6" dy="3.6" in="blurOut2" result="blurOut3"/><feBlend in="SourceGraphic" in2="blurOut3" mode="normal"/></filter></defs><g><!--MD5=[5d4cd377749310b66bf14896f5cd8d9b]
cluster model--><polygon fill="#FFFFFF" filter="url(#fjwg8ghb8x2ii)" points="14.4,5.4,58.5,5.4,64.8,26.6484,417.6,26.6484,417.6,357.3,14.4,357.3,14.4,5.4" style="stroke:#000000;stroke-width:1.35;"/><line style="stroke:#000000;stroke-width:1.35;" x1="14.4" x2="64.8" y1="26.6484" y2="26.6484"/><text fill="#000000" font-family="sans-serif" font-size="12.6" font-weight="bold" lengthAdjust="spacing" textLength="38.7" x="18" y="20.2799">model</text><!--MD5=[f9c2fd651ef0d77047dc9f71f71f6967]
class model.Model--><rect codeLine="3" fill="#FEFECE" filter="url(#fjwg8ghb8x2ii)" height="304.6992" id="model.Model" style="stroke:#A80036;stroke-width:1.35;" width="373.5" x="29.25" y="37.8"/><ellipse cx="197.325" cy="52.2" fill="#ADD1B2" rx="9.9" ry="9.9" style="stroke:#A80036;stroke-width:0.9;"/><path d="M199.125,49.05 Q199.3078,48.6 199.5188,48.375 Q199.7297,48.15 199.9688,48.15 Q200.3906,48.15 200.6578,48.4031 Q200.925,48.6563 200.925,49.2469 L200.925,50.6531 Q200.925,51.2438 200.6719,51.4969 Q200.4188,51.75 200.025,51.75 Q199.6734,51.75 199.4484,51.5953 Q199.2234,51.4406 199.125,51.0328 Q199.0828,50.7516 198.9281,50.5969 Q198.6469,50.3016 198.1406,50.1328 Q197.6344,49.95 197.1281,49.95 Q196.4953,49.95 195.9609,50.2031 Q195.4406,50.4563 195.0328,51.0188 Q194.625,51.5813 194.625,52.3547 L194.625,53.1844 Q194.625,54.1125 195.3844,54.7313 Q196.1438,55.35 197.4938,55.35 Q198.2953,55.35 198.8578,55.1672 Q199.1813,55.0688 199.5469,54.7453 Q199.7859,54.5625 199.9125,54.5063 Q200.0391,54.45 200.1938,54.45 Q200.4891,54.45 200.7,54.6891 Q200.925,54.9141 200.925,55.2375 Q200.925,55.5469 200.6156,55.9125 Q200.1656,56.4469 199.4484,56.7422 Q198.5063,57.15 197.3531,57.15 Q196.0031,57.15 194.9203,56.6156 Q194.0484,56.1938 193.4297,55.2797 Q192.825,54.3656 192.825,53.2828 L192.825,52.2984 Q192.825,51.1734 193.3594,50.1891 Q193.9078,49.2047 194.85,48.6844 Q195.8063,48.15 196.875,48.15 Q197.5219,48.15 198.0844,48.375 Q198.6469,48.6 199.125,49.05 Z " fill="#000000"/><text fill="#000000" font-family="sans-serif" font-size="10.8" lengthAdjust="spacing" textLength="29.7" x="215.775" y="56.6191">Model</text><line style="stroke:#A80036;stroke-width:1.35;" x1="30.15" x2="401.85" y1="66.6" y2="66.6"/><ellipse cx="39.15" cy="76.5" rx="2.7" ry="2.7" style="stroke:#038048;stroke-width:0.9;fill:none;"/><text fill="#000000" font-family="sans-serif" font-size="9.9" lengthAdjust="spacing" textLength="78.3" x="47.25" y="80.4771">expIsOn : boolean</text><ellipse cx="39.15" cy="88.9523" rx="2.7" ry="2.7" style="stroke:#038048;stroke-width:0.9;fill:none;"/><text fill="#000000" font-family="sans-serif" font-size="9.9" lengthAdjust="spacing" textLength="225" x="47.25" y="92.9294">experimentalStorages : ArrayList&lt;ComplexStorage&gt;</text><ellipse cx="39.15" cy="101.4047" rx="2.7" ry="2.7" style="stroke:#038048;stroke-width:0.9;fill:none;"/><text fill="#000000" font-family="sans-serif" font-size="9.9" lengthAdjust="spacing" textLength="244.8" x="47.25" y="105.3817">latestPosition : LiveData&lt;HashMap&lt;String, Dimensions&gt;&gt;</text><ellipse cx="39.15" cy="113.857" rx="2.7" ry="2.7" style="stroke:#038048;stroke-width:0.9;fill:none;"/><text fill="#000000" font-family="sans-serif" font-size="9.9" lengthAdjust="spacing" textLength="350.1" x="47.25" y="117.8341">latestRssiMeasuring : LiveData&lt;HashMap&lt;String, HashMap&lt;Beacon, double[]&gt;&gt;&gt;</text><ellipse cx="39.15" cy="126.3094" rx="2.7" ry="2.7" style="stroke:#038048;stroke-width:0.9;fill:none;"/><text fill="#000000" font-family="sans-serif" font-size="9.9" lengthAdjust="spacing" textLength="171" x="47.25" y="130.2864">processingFinished : LiveData&lt;Integer&gt;</text><ellipse cx="39.15" cy="138.7617" rx="2.7" ry="2.7" style="stroke:#038048;stroke-width:0.9;fill:none;"/><text fill="#000000" font-family="sans-serif" font-size="9.9" lengthAdjust="spacing" textLength="168.3" x="47.25" y="142.7388">rssiStorages : ArrayList&lt;NiceStorage&gt;</text><ellipse cx="39.15" cy="151.2141" rx="2.7" ry="2.7" style="stroke:#038048;stroke-width:0.9;fill:none;"/><text fill="#000000" font-family="sans-serif" font-size="9.9" lengthAdjust="spacing" textLength="134.1" x="47.25" y="155.1911">slavesNum : LiveData&lt;Integer&gt;</text><ellipse cx="39.15" cy="163.6664" rx="2.7" ry="2.7" style="stroke:#038048;stroke-width:0.9;fill:none;"/><text fill="#000000" font-family="sans-serif" font-size="9.9" lengthAdjust="spacing" textLength="171.9" x="47.25" y="167.6435">targetsMacs : LiveData&lt;MacAddress[]&gt;</text><ellipse cx="39.15" cy="176.1188" rx="2.7" ry="2.7" style="stroke:#038048;stroke-width:0.9;fill:none;"/><text fill="#000000" font-family="sans-serif" font-size="9.9" lengthAdjust="spacing" textLength="135.9" x="47.25" y="180.0958">targetsNum : LiveData&lt;Integer&gt;</text><rect fill="none" height="5.4" style="stroke:#C82930;stroke-width:0.9;" width="5.4" x="36.45" y="185.8711"/><text fill="#000000" font-family="sans-serif" font-size="9.9" lengthAdjust="spacing" text-decoration="underline" textLength="118.8" x="47.25" y="192.5481">instance : LiveData&lt;Model&gt;</text><rect fill="none" height="5.4" style="stroke:#C82930;stroke-width:0.9;" width="5.4" x="36.45" y="198.3234"/><text fill="#000000" font-family="sans-serif" font-size="9.9" lengthAdjust="spacing" textLength="164.7" x="47.25" y="205.0005">positionings : Map&lt;String, Positioning&gt;</text><rect fill="none" height="5.4" style="stroke:#C82930;stroke-width:0.9;" width="5.4" x="36.45" y="210.7758"/><text fill="#000000" font-family="sans-serif" font-size="9.9" lengthAdjust="spacing" textLength="86.4" x="47.25" y="217.4528">targetsCapacity : int</text><line style="stroke:#A80036;stroke-width:1.35;" x1="30.15" x2="401.85" y1="223.2281" y2="223.2281"/><ellipse cx="39.15" cy="233.1281" fill="#84BE84" rx="2.7" ry="2.7" style="stroke:#038048;stroke-width:0.9;"/><text fill="#000000" font-family="sans-serif" font-size="9.9" lengthAdjust="spacing" text-decoration="underline" textLength="80.1" x="47.25" y="237.1052">getClearInstance()</text><ellipse cx="39.15" cy="245.5805" fill="#84BE84" rx="2.7" ry="2.7" style="stroke:#038048;stroke-width:0.9;"/><text fill="#000000" font-family="sans-serif" font-size="9.9" lengthAdjust="spacing" textLength="76.5" x="47.25" y="249.5575">getExpStorages()</text><ellipse cx="39.15" cy="258.0328" fill="#84BE84" rx="2.7" ry="2.7" style="stroke:#038048;stroke-width:0.9;"/><text fill="#000000" font-family="sans-serif" font-size="9.9" lengthAdjust="spacing" textLength="93.6" x="47.25" y="262.0099">getTargetsSetString()</text><ellipse cx="39.15" cy="270.4852" fill="#84BE84" rx="2.7" ry="2.7" style="stroke:#038048;stroke-width:0.9;"/><text fill="#000000" font-family="sans-serif" font-size="9.9" lengthAdjust="spacing" textLength="79.2" x="47.25" y="274.4622">getTargetsString()</text><ellipse cx="39.15" cy="282.9375" fill="#84BE84" rx="2.7" ry="2.7" style="stroke:#038048;stroke-width:0.9;"/><text fill="#000000" font-family="sans-serif" font-size="9.9" lengthAdjust="spacing" textLength="89.1" x="47.25" y="286.9146">parseTargetsMacs()</text><ellipse cx="39.15" cy="295.3898" fill="#84BE84" rx="2.7" ry="2.7" style="stroke:#038048;stroke-width:0.9;"/><text fill="#000000" font-family="sans-serif" font-size="9.9" lengthAdjust="spacing" textLength="105.3" x="47.25" y="299.3669">putNewMeasurements()</text><ellipse cx="39.15" cy="307.8422" fill="#84BE84" rx="2.7" ry="2.7" style="stroke:#038048;stroke-width:0.9;"/><text fill="#000000" font-family="sans-serif" font-size="9.9" lengthAdjust="spacing" textLength="69.3" x="47.25" y="311.8192">setSlavesNum()</text><ellipse cx="39.15" cy="320.2945" fill="#84BE84" rx="2.7" ry="2.7" style="stroke:#038048;stroke-width:0.9;"/><text fill="#000000" font-family="sans-serif" font-size="9.9" lengthAdjust="spacing" textLength="54" x="47.25" y="324.2716">setTargets()</text><rect fill="#F24D5C" height="5.4" style="stroke:#C82930;stroke-width:0.9;" width="5.4" x="36.45" y="330.0469"/><text fill="#000000" font-family="sans-serif" font-size="9.9" lengthAdjust="spacing" textLength="32.4" x="47.25" y="336.7239">Model()</text><!--MD5=[691be9c75e74f1e583780e97393cec5e]
@startuml

    namespace model {
      class model.Model {
          + expIsOn : boolean
          + experimentalStorages : ArrayList<ComplexStorage>
          + latestPosition : LiveData<HashMap<String, Dimensions>>
          + latestRssiMeasuring : LiveData<HashMap<String, HashMap<Beacon, double[]>>>
          + processingFinished : LiveData<Integer>
          + rssiStorages : ArrayList<NiceStorage>
          + slavesNum : LiveData<Integer>
          + targetsMacs : LiveData<MacAddress[]>
          + targetsNum : LiveData<Integer>
          {static} - instance : LiveData<Model>
          - positionings : Map<String, Positioning>
          - targetsCapacity : int
          {static} + getClearInstance()
          + getExpStorages()
          + getTargetsSetString()
          + getTargetsString()
          + parseTargetsMacs()
          + putNewMeasurements()
          + setSlavesNum()
          + setTargets()
          - Model()
      }
    }

@enduml

PlantUML version 1.2021.2(Sun Mar 07 18:10:27 GMT+07:00 2021)
(GPL source distribution)
Java Runtime: OpenJDK Runtime Environment
JVM: OpenJDK 64-Bit Server VM
Default Encoding: Cp1251
Language: ru
Country: RU
--></g></svg>