<?xml version="1.0" encoding="UTF-8" standalone="no"?><svg xmlns="http://www.w3.org/2000/svg" xmlns:xlink="http://www.w3.org/1999/xlink" contentScriptType="application/ecmascript" contentStyleType="text/css" height="328px" preserveAspectRatio="none" style="width:561px;height:328px;" version="1.1" viewBox="0 0 561 328" width="561px" zoomAndPan="magnify"><defs><filter height="300%" id="fd11v101lvzpw" width="300%" x="-1" y="-1"><feGaussianBlur result="blurOut" stdDeviation="2.0"/><feColorMatrix in="blurOut" result="blurOut2" type="matrix" values="0 0 0 0 0 0 0 0 0 0 0 0 0 0 0 0 0 0 .4 0"/><feOffset dx="4.0" dy="4.0" in="blurOut2" result="blurOut3"/><feBlend in="SourceGraphic" in2="blurOut3" mode="normal"/></filter></defs><g><!--MD5=[1d68e5b6395424a61415d8ca4301e0b1]
cluster model.methods.solvers--><polygon fill="#FFFFFF" filter="url(#fd11v101lvzpw)" points="16,6,187,6,194,29.6094,544,29.6094,544,321,16,321,16,6" style="stroke:#000000;stroke-width:1.5;"/><line style="stroke:#000000;stroke-width:1.5;" x1="16" x2="194" y1="29.6094" y2="29.6094"/><text fill="#000000" font-family="sans-serif" font-size="14" font-weight="bold" lengthAdjust="spacing" textLength="165" x="20" y="22.5332">model.methods.solvers</text><!--MD5=[abcb7cf76edf0aed541ff2a80957e0f4]
cluster model.methods.solvers.localization--><polygon fill="#FFFFFF" filter="url(#fd11v101lvzpw)" points="40,141.5,125,141.5,132,165.1094,146,165.1094,146,283.5,40,283.5,40,141.5" style="stroke:#000000;stroke-width:1.5;"/><line style="stroke:#000000;stroke-width:1.5;" x1="40" x2="132" y1="165.1094" y2="165.1094"/><text fill="#000000" font-family="sans-serif" font-size="14" font-weight="bold" lengthAdjust="spacing" textLength="79" x="44" y="158.0332">localization</text><!--MD5=[060f3f66a46e90b44a0acee31900809f]
cluster model.methods.solvers.classificators--><polygon fill="#FFFFFF" filter="url(#fd11v101lvzpw)" points="170,128,269,128,276,151.6094,302,151.6094,302,297,170,297,170,128" style="stroke:#000000;stroke-width:1.5;"/><line style="stroke:#000000;stroke-width:1.5;" x1="170" x2="276" y1="151.6094" y2="151.6094"/><text fill="#000000" font-family="sans-serif" font-size="14" font-weight="bold" lengthAdjust="spacing" textLength="93" x="174" y="144.5332">classificators</text><!--MD5=[993d5e902059cfde1a64e683709c7b20]
cluster model.methods.solvers.particleswarm--><polygon fill="#FFFFFF" filter="url(#fd11v101lvzpw)" points="326,148.5,430,148.5,437,172.1094,520,172.1094,520,276.5,326,276.5,326,148.5" style="stroke:#000000;stroke-width:1.5;"/><line style="stroke:#000000;stroke-width:1.5;" x1="326" x2="437" y1="172.1094" y2="172.1094"/><text fill="#000000" font-family="sans-serif" font-size="14" font-weight="bold" lengthAdjust="spacing" textLength="98" x="330" y="165.0332">particleswarm</text><!--MD5=[ae1d65f51b5e2772868c566e5fd8ad09]
class model.methods.solvers.Estimator--><rect codeLine="3" fill="#FEFECE" filter="url(#fd11v101lvzpw)" height="61.8359" id="model.methods.solvers.Estimator" style="stroke:#A80036;stroke-width:1.5;" width="84" x="194" y="42"/><ellipse cx="209" cy="58" fill="#B4A7E5" rx="11" ry="11" style="stroke:#A80036;stroke-width:1.0;"/><path d="M210,55 L210,61 L212,61 L212.4844,61 L213,61.625 L213,62 L213,62.375 L212.4844,63 L212,63 L206,63 L205.5156,63 L205,62.375 L205,62 L205,61.625 L205.5156,61 L206,61 L208,61 L208,55 L206,55 L205.5156,55 L205,54.375 L205,54 L205,53.625 L205.5156,53 L206,53 L212,53 L212.4844,53 L213,53.625 L213,54 L213,54.375 L212.4844,55 L212,55 L210,55 Z " fill="#000000"/><text fill="#000000" font-family="sans-serif" font-size="12" font-style="italic" lengthAdjust="spacing" textLength="52" x="223" y="62.9102">Estimator</text><line style="stroke:#A80036;stroke-width:1.5;" x1="195" x2="277" y1="74" y2="74"/><line style="stroke:#A80036;stroke-width:1.5;" x1="195" x2="277" y1="82" y2="82"/><ellipse cx="205" cy="93" fill="#84BE84" rx="3" ry="3" style="stroke:#038048;stroke-width:1.0;"/><text fill="#000000" font-family="sans-serif" font-size="11" font-style="italic" lengthAdjust="spacing" textLength="50" x="214" y="97.4189">estimate()</text><!--MD5=[9a86ccb5f6a5734c92c4e4da0f531b1c]
class model.methods.solvers.localization.WCL--><rect codeLine="9" fill="#FEFECE" filter="url(#fd11v101lvzpw)" height="89.5078" id="model.methods.solvers.localization.WCL" style="stroke:#A80036;stroke-width:1.5;" width="74" x="56" y="177.5"/><ellipse cx="77.75" cy="193.5" fill="#ADD1B2" rx="11" ry="11" style="stroke:#A80036;stroke-width:1.0;"/><path d="M79.75,190 Q79.9531,189.5 80.1875,189.25 Q80.4219,189 80.6875,189 Q81.1563,189 81.4531,189.2813 Q81.75,189.5625 81.75,190.2188 L81.75,191.7813 Q81.75,192.4375 81.4688,192.7188 Q81.1875,193 80.75,193 Q80.3594,193 80.1094,192.8281 Q79.8594,192.6563 79.75,192.2031 Q79.7031,191.8906 79.5313,191.7188 Q79.2188,191.3906 78.6563,191.2031 Q78.0938,191 77.5313,191 Q76.8281,191 76.2344,191.2813 Q75.6563,191.5625 75.2031,192.1875 Q74.75,192.8125 74.75,193.6719 L74.75,194.5938 Q74.75,195.625 75.5938,196.3125 Q76.4375,197 77.9375,197 Q78.8281,197 79.4531,196.7969 Q79.8125,196.6875 80.2188,196.3281 Q80.4844,196.125 80.625,196.0625 Q80.7656,196 80.9375,196 Q81.2656,196 81.5,196.2656 Q81.75,196.5156 81.75,196.875 Q81.75,197.2188 81.4063,197.625 Q80.9063,198.2188 80.1094,198.5469 Q79.0625,199 77.7813,199 Q76.2813,199 75.0781,198.4063 Q74.1094,197.9375 73.4219,196.9219 Q72.75,195.9063 72.75,194.7031 L72.75,193.6094 Q72.75,192.3594 73.3438,191.2656 Q73.9531,190.1719 75,189.5938 Q76.0625,189 77.25,189 Q77.9688,189 78.5938,189.25 Q79.2188,189.5 79.75,190 Z " fill="#000000"/><text fill="#000000" font-family="sans-serif" font-size="12" lengthAdjust="spacing" textLength="27" x="93.25" y="198.4102">WCL</text><line style="stroke:#A80036;stroke-width:1.5;" x1="57" x2="129" y1="209.5" y2="209.5"/><polygon fill="none" points="67,216.5,63,222.5,71,222.5" style="stroke:#1963A0;stroke-width:1.0;"/><text fill="#000000" font-family="sans-serif" font-size="11" lengthAdjust="spacing" textLength="47" x="76" y="224.9189">a : double</text><line style="stroke:#A80036;stroke-width:1.5;" x1="57" x2="129" y1="231.3359" y2="231.3359"/><ellipse cx="67" cy="242.3359" fill="#84BE84" rx="3" ry="3" style="stroke:#038048;stroke-width:1.0;"/><text fill="#000000" font-family="sans-serif" font-size="11" lengthAdjust="spacing" textLength="31" x="76" y="246.7549">WCL()</text><ellipse cx="67" cy="256.1719" fill="#84BE84" rx="3" ry="3" style="stroke:#038048;stroke-width:1.0;"/><text fill="#000000" font-family="sans-serif" font-size="11" lengthAdjust="spacing" textLength="48" x="76" y="260.5908">estimate()</text><!--MD5=[e5689209a845780406dd9d499b2b2c6c]
class model.methods.solvers.classificators.Classificator--><rect codeLine="19" fill="#FEFECE" filter="url(#fd11v101lvzpw)" height="117.1797" id="model.methods.solvers.classificators.Classificator" style="stroke:#A80036;stroke-width:1.5;" width="99" x="186.5" y="164"/><ellipse cx="201.5" cy="180" fill="#A9DCDF" rx="11" ry="11" style="stroke:#A80036;stroke-width:1.0;"/><path d="M203.25,181.5 L199.9531,181.5 L199.5156,182.5 L199.5156,182.5 L199.9844,182.5 L200.5,183.125 L200.5,183.5 L200.5,183.875 L199.9844,184.5 L199.5156,184.5 L197.625,184.5 L197.0156,184.5 L196.5,183.875 L196.5,183.5 L196.5,183.125 L197.0156,182.5 L197.625,182.5 L199.9375,176.5 L199.0625,176.5 L198.0156,176.5 L197.5,175.875 L197.5,175.5 L197.5,175.125 L198.0156,174.5 L199.0625,174.5 L202.7344,174.5 L205.4219,182.5 L205.9844,182.5 L205.9844,182.5 L206.5,183.125 L206.5,183.5 L206.5,183.875 L205.9844,184.5 L205.4219,184.5 L203.5313,184.5 L203.0156,184.5 L202.5,183.875 L202.5,183.5 L202.5,183.125 L203.0156,182.5 L203.5313,182.5 L203.5313,182.5 L203.25,181.5 Z M202.7031,179.5 L201.5,175.9219 L200.4688,179.5 L202.7031,179.5 Z " fill="#000000"/><text fill="#000000" font-family="sans-serif" font-size="12" font-style="italic" lengthAdjust="spacing" textLength="67" x="215.5" y="184.9102">Classificator</text><line style="stroke:#A80036;stroke-width:1.5;" x1="187.5" x2="284.5" y1="196" y2="196"/><polygon fill="none" points="197.5,203,193.5,209,201.5,209" style="stroke:#1963A0;stroke-width:1.0;"/><text fill="#000000" font-family="sans-serif" font-size="11" lengthAdjust="spacing" textLength="70" x="206.5" y="211.4189">input : double[]</text><line style="stroke:#A80036;stroke-width:1.5;" x1="187.5" x2="284.5" y1="217.8359" y2="217.8359"/><ellipse cx="197.5" cy="228.8359" fill="#84BE84" rx="3" ry="3" style="stroke:#038048;stroke-width:1.0;"/><text fill="#000000" font-family="sans-serif" font-size="11" lengthAdjust="spacing" textLength="48" x="206.5" y="233.2549">estimate()</text><ellipse cx="197.5" cy="242.6719" fill="#84BE84" rx="3" ry="3" style="stroke:#038048;stroke-width:1.0;"/><text fill="#000000" font-family="sans-serif" font-size="11" lengthAdjust="spacing" textLength="45" x="206.5" y="247.0908">toString()</text><polygon fill="#4177AF" points="197.5,252.5078,193.5,258.5078,201.5,258.5078" style="stroke:#1963A0;stroke-width:1.0;"/><text fill="#000000" font-family="sans-serif" font-size="11" font-style="italic" lengthAdjust="spacing" textLength="57" x="206.5" y="260.9268">computeX()</text><polygon fill="#4177AF" points="197.5,266.3438,193.5,272.3438,201.5,272.3438" style="stroke:#1963A0;stroke-width:1.0;"/><text fill="#000000" font-family="sans-serif" font-size="11" font-style="italic" lengthAdjust="spacing" textLength="57" x="206.5" y="274.7627">computeY()</text><!--MD5=[1341a8d7974b61dd3a4b879c49913eb4]
class model.methods.solvers.particleswarm.ParticleSwamEstimator--><rect codeLine="31" fill="#FEFECE" filter="url(#fd11v101lvzpw)" height="75.6719" id="model.methods.solvers.particleswarm.ParticleSwamEstimator" style="stroke:#A80036;stroke-width:1.5;" width="161" x="342.5" y="184.5"/><ellipse cx="357.5" cy="200.5" fill="#ADD1B2" rx="11" ry="11" style="stroke:#A80036;stroke-width:1.0;"/><path d="M359.5,197 Q359.7031,196.5 359.9375,196.25 Q360.1719,196 360.4375,196 Q360.9063,196 361.2031,196.2813 Q361.5,196.5625 361.5,197.2188 L361.5,198.7813 Q361.5,199.4375 361.2188,199.7188 Q360.9375,200 360.5,200 Q360.1094,200 359.8594,199.8281 Q359.6094,199.6563 359.5,199.2031 Q359.4531,198.8906 359.2813,198.7188 Q358.9688,198.3906 358.4063,198.2031 Q357.8438,198 357.2813,198 Q356.5781,198 355.9844,198.2813 Q355.4063,198.5625 354.9531,199.1875 Q354.5,199.8125 354.5,200.6719 L354.5,201.5938 Q354.5,202.625 355.3438,203.3125 Q356.1875,204 357.6875,204 Q358.5781,204 359.2031,203.7969 Q359.5625,203.6875 359.9688,203.3281 Q360.2344,203.125 360.375,203.0625 Q360.5156,203 360.6875,203 Q361.0156,203 361.25,203.2656 Q361.5,203.5156 361.5,203.875 Q361.5,204.2188 361.1563,204.625 Q360.6563,205.2188 359.8594,205.5469 Q358.8125,206 357.5313,206 Q356.0313,206 354.8281,205.4063 Q353.8594,204.9375 353.1719,203.9219 Q352.5,202.9063 352.5,201.7031 L352.5,200.6094 Q352.5,199.3594 353.0938,198.2656 Q353.7031,197.1719 354.75,196.5938 Q355.8125,196 357,196 Q357.7188,196 358.3438,196.25 Q358.9688,196.5 359.5,197 Z " fill="#000000"/><text fill="#000000" font-family="sans-serif" font-size="12" lengthAdjust="spacing" textLength="129" x="371.5" y="205.4102">ParticleSwamEstimator</text><line style="stroke:#A80036;stroke-width:1.5;" x1="343.5" x2="502.5" y1="216.5" y2="216.5"/><line style="stroke:#A80036;stroke-width:1.5;" x1="343.5" x2="502.5" y1="224.5" y2="224.5"/><ellipse cx="353.5" cy="235.5" fill="#84BE84" rx="3" ry="3" style="stroke:#038048;stroke-width:1.0;"/><text fill="#000000" font-family="sans-serif" font-size="11" lengthAdjust="spacing" textLength="118" x="362.5" y="239.9189">ParticleSwamEstimator()</text><ellipse cx="353.5" cy="249.3359" fill="#84BE84" rx="3" ry="3" style="stroke:#038048;stroke-width:1.0;"/><text fill="#000000" font-family="sans-serif" font-size="11" lengthAdjust="spacing" textLength="48" x="362.5" y="253.7549">estimate()</text><!--MD5=[00af1e59893525133ebb92b60e61e594]
reverse link model.methods.solvers.Estimator to model.methods.solvers.classificators.Classificator--><path codeLine="39" d="M236,124.34 C236,137.07 236,150.84 236,163.9 " fill="none" id="model.methods.solvers.Estimator-backto-model.methods.solvers.classificators.Classificator" style="stroke:#A80036;stroke-width:1.0;stroke-dasharray:7.0,7.0;"/><polygon fill="none" points="229,124.2,236,104.2,243,124.2,229,124.2" style="stroke:#A80036;stroke-width:1.0;"/><!--MD5=[5f8fce19a81c63f787410f0ceb05c82b]
reverse link model.methods.solvers.Estimator to model.methods.solvers.localization.WCL--><path codeLine="40" d="M177.83,112.93 C175.12,115.24 172.49,117.61 170,120 C152.21,137.08 135.31,158.54 121.9,177.32 " fill="none" id="model.methods.solvers.Estimator-backto-model.methods.solvers.localization.WCL" style="stroke:#A80036;stroke-width:1.0;stroke-dasharray:7.0,7.0;"/><polygon fill="none" points="173.89,107.13,193.97,100.33,182.51,118.16,173.89,107.13" style="stroke:#A80036;stroke-width:1.0;"/><!--MD5=[f5e7b449d7e20b089f9a899ed366527a]
reverse link model.methods.solvers.Estimator to model.methods.solvers.particleswarm.ParticleSwamEstimator--><path codeLine="41" d="M294.77,114.55 C297.22,116.37 299.64,118.2 302,120 C328.78,140.5 357.76,164.73 380.64,184.38 " fill="none" id="model.methods.solvers.Estimator-backto-model.methods.solvers.particleswarm.ParticleSwamEstimator" style="stroke:#A80036;stroke-width:1.0;stroke-dasharray:7.0,7.0;"/><polygon fill="none" points="290.41,120.04,278.3,102.65,298.61,108.69,290.41,120.04" style="stroke:#A80036;stroke-width:1.0;"/><!--MD5=[30870f84a84e7f110b4e03a4b7bdedff]
@startuml

    namespace model.methods.solvers {
        interface model.methods.solvers.Estimator {
            {abstract} + estimate()
        }
    }
    namespace model.methods.solvers {
        namespace localization {
            class model.methods.solvers.localization.WCL {
                ~ a : double
                + WCL()
                + estimate()
            }
        }
    }

    namespace model.methods.solvers {
         namespace classificators {
              abstract class model.methods.solvers.classificators.Classificator {
                   ~ input : double[]
                   + estimate()
                   + toString()
                   {abstract} ~ computeX()
                   {abstract} ~ computeY()
             }
         }
    }

    namespace model.methods.solvers {
        namespace particleswarm {
          class model.methods.solvers.particleswarm.ParticleSwamEstimator {
              + ParticleSwamEstimator()
              + estimate()
          }
        }
      }


  model.methods.solvers.classificators.Classificator .up.|> model.methods.solvers.Estimator
  model.methods.solvers.localization.WCL .up.|> model.methods.solvers.Estimator
  model.methods.solvers.particleswarm.ParticleSwamEstimator .up.|> model.methods.solvers.Estimator





@enduml

PlantUML version 1.2021.2(Sun Mar 07 18:10:27 GMT+07:00 2021)
(GPL source distribution)
Java Runtime: OpenJDK Runtime Environment
JVM: OpenJDK 64-Bit Server VM
Default Encoding: Cp1251
Language: ru
Country: RU
--></g></svg>