<?xml version="1.0" encoding="UTF-8" standalone="no"?><svg xmlns="http://www.w3.org/2000/svg" xmlns:xlink="http://www.w3.org/1999/xlink" contentScriptType="application/ecmascript" contentStyleType="text/css" height="1015px" preserveAspectRatio="none" style="width:434px;height:1015px;" version="1.1" viewBox="0 0 434 1015" width="434px" zoomAndPan="magnify"><defs><filter height="300%" id="f1hc4pnc4vrpyi" width="300%" x="-1" y="-1"><feGaussianBlur result="blurOut" stdDeviation="2.0"/><feColorMatrix in="blurOut" result="blurOut2" type="matrix" values="0 0 0 0 0 0 0 0 0 0 0 0 0 0 0 0 0 0 .4 0"/><feOffset dx="4.0" dy="4.0" in="blurOut2" result="blurOut3"/><feBlend in="SourceGraphic" in2="blurOut3" mode="normal"/></filter></defs><g><!--MD5=[993d5e902059cfde1a64e683709c7b20]
cluster model.methods.solvers.particleswarm--><polygon fill="#FFFFFF" filter="url(#f1hc4pnc4vrpyi)" points="16,6,289,6,296,29.6094,417,29.6094,417,1008,16,1008,16,6" style="stroke:#000000;stroke-width:1.5;"/><line style="stroke:#000000;stroke-width:1.5;" x1="16" x2="296" y1="29.6094" y2="29.6094"/><text fill="#000000" font-family="sans-serif" font-size="14" font-weight="bold" lengthAdjust="spacing" textLength="267" x="20" y="22.5332">model.methods.solvers.particleswarm</text><!--MD5=[33a89e28830a2b1f773128e6c0db012c]
class model.methods.solvers.particleswarm.LeastSquaresFunction--><rect codeLine="4" fill="#FEFECE" filter="url(#f1hc4pnc4vrpyi)" height="117.1797" id="model.methods.solvers.particleswarm.LeastSquaresFunction" style="stroke:#A80036;stroke-width:1.5;" width="157" x="107.5" y="875"/><ellipse cx="122.5" cy="891" fill="#ADD1B2" rx="11" ry="11" style="stroke:#A80036;stroke-width:1.0;"/><path d="M124.5,887.5 Q124.7031,887 124.9375,886.75 Q125.1719,886.5 125.4375,886.5 Q125.9063,886.5 126.2031,886.7813 Q126.5,887.0625 126.5,887.7188 L126.5,889.2813 Q126.5,889.9375 126.2188,890.2188 Q125.9375,890.5 125.5,890.5 Q125.1094,890.5 124.8594,890.3281 Q124.6094,890.1563 124.5,889.7031 Q124.4531,889.3906 124.2813,889.2188 Q123.9688,888.8906 123.4063,888.7031 Q122.8438,888.5 122.2813,888.5 Q121.5781,888.5 120.9844,888.7813 Q120.4063,889.0625 119.9531,889.6875 Q119.5,890.3125 119.5,891.1719 L119.5,892.0938 Q119.5,893.125 120.3438,893.8125 Q121.1875,894.5 122.6875,894.5 Q123.5781,894.5 124.2031,894.2969 Q124.5625,894.1875 124.9688,893.8281 Q125.2344,893.625 125.375,893.5625 Q125.5156,893.5 125.6875,893.5 Q126.0156,893.5 126.25,893.7656 Q126.5,894.0156 126.5,894.375 Q126.5,894.7188 126.1563,895.125 Q125.6563,895.7188 124.8594,896.0469 Q123.8125,896.5 122.5313,896.5 Q121.0313,896.5 119.8281,895.9063 Q118.8594,895.4375 118.1719,894.4219 Q117.5,893.4063 117.5,892.2031 L117.5,891.1094 Q117.5,889.8594 118.0938,888.7656 Q118.7031,887.6719 119.75,887.0938 Q120.8125,886.5 122,886.5 Q122.7188,886.5 123.3438,886.75 Q123.9688,887 124.5,887.5 Z " fill="#000000"/><text fill="#000000" font-family="sans-serif" font-size="12" lengthAdjust="spacing" textLength="125" x="136.5" y="895.9102">LeastSquaresFunction</text><line style="stroke:#A80036;stroke-width:1.5;" x1="108.5" x2="263.5" y1="907" y2="907"/><ellipse cx="118.5" cy="918" rx="3" ry="3" style="stroke:#038048;stroke-width:1.0;fill:none;"/><text fill="#000000" font-family="sans-serif" font-size="11" lengthAdjust="spacing" text-decoration="underline" textLength="44" x="127.5" y="922.4189">X : String</text><ellipse cx="118.5" cy="931.8359" rx="3" ry="3" style="stroke:#038048;stroke-width:1.0;fill:none;"/><text fill="#000000" font-family="sans-serif" font-size="11" lengthAdjust="spacing" text-decoration="underline" textLength="45" x="127.5" y="936.2549">Y : String</text><rect fill="none" height="6" style="stroke:#C82930;stroke-width:1.0;" width="6" x="115.5" y="942.6719"/><text fill="#000000" font-family="sans-serif" font-size="11" lengthAdjust="spacing" textLength="110" x="127.5" y="950.0908">exception : Expression</text><line style="stroke:#A80036;stroke-width:1.5;" x1="108.5" x2="263.5" y1="956.5078" y2="956.5078"/><ellipse cx="118.5" cy="967.5078" fill="#84BE84" rx="3" ry="3" style="stroke:#038048;stroke-width:1.0;"/><text fill="#000000" font-family="sans-serif" font-size="11" lengthAdjust="spacing" textLength="18" x="127.5" y="971.9268">of()</text><rect fill="#F24D5C" height="6" style="stroke:#C82930;stroke-width:1.0;" width="6" x="115.5" y="978.3438"/><text fill="#000000" font-family="sans-serif" font-size="11" lengthAdjust="spacing" textLength="117" x="127.5" y="985.7627">LeastSquaresFunction()</text><!--MD5=[f4cfdaa09e784059447396af047a648b]
class model.methods.solvers.particleswarm.ParticleSwam--><rect codeLine="18" fill="#FEFECE" filter="url(#f1hc4pnc4vrpyi)" height="380.0625" id="model.methods.solvers.particleswarm.ParticleSwam" style="stroke:#A80036;stroke-width:1.5;" width="186" x="32" y="417"/><ellipse cx="82.75" cy="433" fill="#ADD1B2" rx="11" ry="11" style="stroke:#A80036;stroke-width:1.0;"/><path d="M84.75,429.5 Q84.9531,429 85.1875,428.75 Q85.4219,428.5 85.6875,428.5 Q86.1563,428.5 86.4531,428.7813 Q86.75,429.0625 86.75,429.7188 L86.75,431.2813 Q86.75,431.9375 86.4688,432.2188 Q86.1875,432.5 85.75,432.5 Q85.3594,432.5 85.1094,432.3281 Q84.8594,432.1563 84.75,431.7031 Q84.7031,431.3906 84.5313,431.2188 Q84.2188,430.8906 83.6563,430.7031 Q83.0938,430.5 82.5313,430.5 Q81.8281,430.5 81.2344,430.7813 Q80.6563,431.0625 80.2031,431.6875 Q79.75,432.3125 79.75,433.1719 L79.75,434.0938 Q79.75,435.125 80.5938,435.8125 Q81.4375,436.5 82.9375,436.5 Q83.8281,436.5 84.4531,436.2969 Q84.8125,436.1875 85.2188,435.8281 Q85.4844,435.625 85.625,435.5625 Q85.7656,435.5 85.9375,435.5 Q86.2656,435.5 86.5,435.7656 Q86.75,436.0156 86.75,436.375 Q86.75,436.7188 86.4063,437.125 Q85.9063,437.7188 85.1094,438.0469 Q84.0625,438.5 82.7813,438.5 Q81.2813,438.5 80.0781,437.9063 Q79.1094,437.4375 78.4219,436.4219 Q77.75,435.4063 77.75,434.2031 L77.75,433.1094 Q77.75,431.8594 78.3438,430.7656 Q78.9531,429.6719 80,429.0938 Q81.0625,428.5 82.25,428.5 Q82.9688,428.5 83.5938,428.75 Q84.2188,429 84.75,429.5 Z " fill="#000000"/><text fill="#000000" font-family="sans-serif" font-size="12" lengthAdjust="spacing" textLength="76" x="103.25" y="437.9102">ParticleSwam</text><line style="stroke:#A80036;stroke-width:1.5;" x1="33" x2="217" y1="449" y2="449"/><polygon fill="none" points="43,456,39,462,47,462" style="stroke:#1963A0;stroke-width:1.0;"/><text fill="#000000" font-family="sans-serif" font-size="11" lengthAdjust="spacing" textLength="93" x="52" y="464.4189">fBestTemp : double</text><polygon fill="none" points="43,469.8359,39,475.8359,47,475.8359" style="stroke:#1963A0;stroke-width:1.0;"/><text fill="#000000" font-family="sans-serif" font-size="11" lengthAdjust="spacing" textLength="160" x="52" y="478.2549">globalBestFunctionValue : double</text><polygon fill="none" points="43,483.6719,39,489.6719,47,489.6719" style="stroke:#1963A0;stroke-width:1.0;"/><text fill="#000000" font-family="sans-serif" font-size="11" lengthAdjust="spacing" textLength="78" x="52" y="492.0908">globalBestId : int</text><polygon fill="none" points="43,497.5078,39,503.5078,47,503.5078" style="stroke:#1963A0;stroke-width:1.0;"/><text fill="#000000" font-family="sans-serif" font-size="11" lengthAdjust="spacing" textLength="98" x="52" y="505.9268">globalBestX : double</text><polygon fill="none" points="43,511.3438,39,517.3438,47,517.3438" style="stroke:#1963A0;stroke-width:1.0;"/><text fill="#000000" font-family="sans-serif" font-size="11" lengthAdjust="spacing" textLength="99" x="52" y="519.7627">globalBestY : double</text><polygon fill="none" points="43,525.1797,39,531.1797,47,531.1797" style="stroke:#1963A0;stroke-width:1.0;"/><text fill="#000000" font-family="sans-serif" font-size="11" lengthAdjust="spacing" textLength="76" x="52" y="533.5986">idBestTemp : int</text><polygon fill="none" points="43,539.0156,39,545.0156,47,545.0156" style="stroke:#1963A0;stroke-width:1.0;"/><text fill="#000000" font-family="sans-serif" font-size="11" lengthAdjust="spacing" textLength="84" x="52" y="547.4346">maxIterations : int</text><polygon fill="none" points="43,552.8516,39,558.8516,47,558.8516" style="stroke:#1963A0;stroke-width:1.0;"/><text fill="#000000" font-family="sans-serif" font-size="11" lengthAdjust="spacing" textLength="67" x="52" y="561.2705">points : Point[]</text><polygon fill="none" points="43,566.6875,39,572.6875,47,572.6875" style="stroke:#1963A0;stroke-width:1.0;"/><text fill="#000000" font-family="sans-serif" font-size="11" lengthAdjust="spacing" textLength="41" x="52" y="575.1064">step : int</text><polygon fill="none" points="43,580.5234,39,586.5234,47,586.5234" style="stroke:#1963A0;stroke-width:1.0;"/><text fill="#000000" font-family="sans-serif" font-size="11" lengthAdjust="spacing" textLength="123" x="52" y="588.9424">uniformRandom : Random</text><polygon fill="none" points="43,594.3594,39,600.3594,47,600.3594" style="stroke:#1963A0;stroke-width:1.0;"/><text fill="#000000" font-family="sans-serif" font-size="11" lengthAdjust="spacing" textLength="95" x="52" y="602.7783">xBestTemp : double</text><polygon fill="none" points="43,608.1953,39,614.1953,47,614.1953" style="stroke:#1963A0;stroke-width:1.0;"/><text fill="#000000" font-family="sans-serif" font-size="11" lengthAdjust="spacing" textLength="67" x="52" y="616.6143">xMax : double</text><polygon fill="none" points="43,622.0313,39,628.0313,47,628.0313" style="stroke:#1963A0;stroke-width:1.0;"/><text fill="#000000" font-family="sans-serif" font-size="11" lengthAdjust="spacing" textLength="63" x="52" y="630.4502">xMin : double</text><polygon fill="none" points="43,635.8672,39,641.8672,47,641.8672" style="stroke:#1963A0;stroke-width:1.0;"/><text fill="#000000" font-family="sans-serif" font-size="11" lengthAdjust="spacing" textLength="76" x="52" y="644.2861">xPointsNum : int</text><polygon fill="none" points="43,649.7031,39,655.7031,47,655.7031" style="stroke:#1963A0;stroke-width:1.0;"/><text fill="#000000" font-family="sans-serif" font-size="11" lengthAdjust="spacing" textLength="95" x="52" y="658.1221">yBestTemp : double</text><polygon fill="none" points="43,663.5391,39,669.5391,47,669.5391" style="stroke:#1963A0;stroke-width:1.0;"/><text fill="#000000" font-family="sans-serif" font-size="11" lengthAdjust="spacing" textLength="67" x="52" y="671.958">yMax : double</text><polygon fill="none" points="43,677.375,39,683.375,47,683.375" style="stroke:#1963A0;stroke-width:1.0;"/><text fill="#000000" font-family="sans-serif" font-size="11" lengthAdjust="spacing" textLength="63" x="52" y="685.7939">yMin : double</text><polygon fill="none" points="43,691.2109,39,697.2109,47,697.2109" style="stroke:#1963A0;stroke-width:1.0;"/><text fill="#000000" font-family="sans-serif" font-size="11" lengthAdjust="spacing" textLength="76" x="52" y="699.6299">yPointsNum : int</text><line style="stroke:#A80036;stroke-width:1.5;" x1="33" x2="217" y1="706.0469" y2="706.0469"/><ellipse cx="43" cy="717.0469" fill="#84BE84" rx="3" ry="3" style="stroke:#038048;stroke-width:1.0;"/><text fill="#000000" font-family="sans-serif" font-size="11" lengthAdjust="spacing" textLength="74" x="52" y="721.4658">ParticleSwam()</text><ellipse cx="43" cy="730.8828" fill="#84BE84" rx="3" ry="3" style="stroke:#038048;stroke-width:1.0;"/><text fill="#000000" font-family="sans-serif" font-size="11" lengthAdjust="spacing" textLength="67" x="52" y="735.3018">calculateFull()</text><ellipse cx="43" cy="744.7188" fill="#84BE84" rx="3" ry="3" style="stroke:#038048;stroke-width:1.0;"/><text fill="#000000" font-family="sans-serif" font-size="11" lengthAdjust="spacing" textLength="32" x="52" y="749.1377">clear()</text><ellipse cx="43" cy="758.5547" fill="#84BE84" rx="3" ry="3" style="stroke:#038048;stroke-width:1.0;"/><text fill="#000000" font-family="sans-serif" font-size="11" lengthAdjust="spacing" textLength="71" x="52" y="762.9736">fitClearPoints()</text><ellipse cx="43" cy="772.3906" fill="#84BE84" rx="3" ry="3" style="stroke:#038048;stroke-width:1.0;"/><text fill="#000000" font-family="sans-serif" font-size="11" lengthAdjust="spacing" textLength="48" x="52" y="776.8096">hasNext()</text><ellipse cx="43" cy="786.2266" fill="#84BE84" rx="3" ry="3" style="stroke:#038048;stroke-width:1.0;"/><text fill="#000000" font-family="sans-serif" font-size="11" lengthAdjust="spacing" textLength="29" x="52" y="790.6455">next()</text><!--MD5=[b4b4ce0e7c4e9f2ed62c75236dedcaeb]
class model.methods.solvers.particleswarm.ParticleSwamBuilder--><rect codeLine="50" fill="#FEFECE" filter="url(#f1hc4pnc4vrpyi)" height="269.375" id="model.methods.solvers.particleswarm.ParticleSwamBuilder" style="stroke:#A80036;stroke-width:1.5;" width="147" x="253.5" y="472.5"/><ellipse cx="268.5" cy="488.5" fill="#ADD1B2" rx="11" ry="11" style="stroke:#A80036;stroke-width:1.0;"/><path d="M270.5,485 Q270.7031,484.5 270.9375,484.25 Q271.1719,484 271.4375,484 Q271.9063,484 272.2031,484.2813 Q272.5,484.5625 272.5,485.2188 L272.5,486.7813 Q272.5,487.4375 272.2188,487.7188 Q271.9375,488 271.5,488 Q271.1094,488 270.8594,487.8281 Q270.6094,487.6563 270.5,487.2031 Q270.4531,486.8906 270.2813,486.7188 Q269.9688,486.3906 269.4063,486.2031 Q268.8438,486 268.2813,486 Q267.5781,486 266.9844,486.2813 Q266.4063,486.5625 265.9531,487.1875 Q265.5,487.8125 265.5,488.6719 L265.5,489.5938 Q265.5,490.625 266.3438,491.3125 Q267.1875,492 268.6875,492 Q269.5781,492 270.2031,491.7969 Q270.5625,491.6875 270.9688,491.3281 Q271.2344,491.125 271.375,491.0625 Q271.5156,491 271.6875,491 Q272.0156,491 272.25,491.2656 Q272.5,491.5156 272.5,491.875 Q272.5,492.2188 272.1563,492.625 Q271.6563,493.2188 270.8594,493.5469 Q269.8125,494 268.5313,494 Q267.0313,494 265.8281,493.4063 Q264.8594,492.9375 264.1719,491.9219 Q263.5,490.9063 263.5,489.7031 L263.5,488.6094 Q263.5,487.3594 264.0938,486.2656 Q264.7031,485.1719 265.75,484.5938 Q266.8125,484 268,484 Q268.7188,484 269.3438,484.25 Q269.9688,484.5 270.5,485 Z " fill="#000000"/><text fill="#000000" font-family="sans-serif" font-size="12" lengthAdjust="spacing" textLength="115" x="282.5" y="493.4102">ParticleSwamBuilder</text><line style="stroke:#A80036;stroke-width:1.5;" x1="254.5" x2="399.5" y1="504.5" y2="504.5"/><rect fill="none" height="6" style="stroke:#C82930;stroke-width:1.0;" width="6" x="261.5" y="512.5"/><text fill="#000000" font-family="sans-serif" font-size="11" lengthAdjust="spacing" textLength="84" x="273.5" y="519.9189">maxIterations : int</text><rect fill="none" height="6" style="stroke:#C82930;stroke-width:1.0;" width="6" x="261.5" y="526.3359"/><text fill="#000000" font-family="sans-serif" font-size="11" lengthAdjust="spacing" textLength="67" x="273.5" y="533.7549">xMax : double</text><rect fill="none" height="6" style="stroke:#C82930;stroke-width:1.0;" width="6" x="261.5" y="540.1719"/><text fill="#000000" font-family="sans-serif" font-size="11" lengthAdjust="spacing" textLength="63" x="273.5" y="547.5908">xMin : double</text><rect fill="none" height="6" style="stroke:#C82930;stroke-width:1.0;" width="6" x="261.5" y="554.0078"/><text fill="#000000" font-family="sans-serif" font-size="11" lengthAdjust="spacing" textLength="76" x="273.5" y="561.4268">xPointsNum : int</text><rect fill="none" height="6" style="stroke:#C82930;stroke-width:1.0;" width="6" x="261.5" y="567.8438"/><text fill="#000000" font-family="sans-serif" font-size="11" lengthAdjust="spacing" textLength="67" x="273.5" y="575.2627">yMax : double</text><rect fill="none" height="6" style="stroke:#C82930;stroke-width:1.0;" width="6" x="261.5" y="581.6797"/><text fill="#000000" font-family="sans-serif" font-size="11" lengthAdjust="spacing" textLength="63" x="273.5" y="589.0986">yMin : double</text><rect fill="none" height="6" style="stroke:#C82930;stroke-width:1.0;" width="6" x="261.5" y="595.5156"/><text fill="#000000" font-family="sans-serif" font-size="11" lengthAdjust="spacing" textLength="76" x="273.5" y="602.9346">yPointsNum : int</text><line style="stroke:#A80036;stroke-width:1.5;" x1="254.5" x2="399.5" y1="609.3516" y2="609.3516"/><ellipse cx="264.5" cy="620.3516" fill="#84BE84" rx="3" ry="3" style="stroke:#038048;stroke-width:1.0;"/><text fill="#000000" font-family="sans-serif" font-size="11" lengthAdjust="spacing" textLength="107" x="273.5" y="624.7705">ParticleSwamBuilder()</text><ellipse cx="264.5" cy="634.1875" fill="#84BE84" rx="3" ry="3" style="stroke:#038048;stroke-width:1.0;"/><text fill="#000000" font-family="sans-serif" font-size="11" lengthAdjust="spacing" textLength="30" x="273.5" y="638.6064">build()</text><ellipse cx="264.5" cy="648.0234" fill="#84BE84" rx="3" ry="3" style="stroke:#038048;stroke-width:1.0;"/><text fill="#000000" font-family="sans-serif" font-size="11" lengthAdjust="spacing" textLength="87" x="273.5" y="652.4424">setMaxIterations()</text><ellipse cx="264.5" cy="661.8594" fill="#84BE84" rx="3" ry="3" style="stroke:#038048;stroke-width:1.0;"/><text fill="#000000" font-family="sans-serif" font-size="11" lengthAdjust="spacing" textLength="49" x="273.5" y="666.2783">setxMax()</text><ellipse cx="264.5" cy="675.6953" fill="#84BE84" rx="3" ry="3" style="stroke:#038048;stroke-width:1.0;"/><text fill="#000000" font-family="sans-serif" font-size="11" lengthAdjust="spacing" textLength="45" x="273.5" y="680.1143">setxMin()</text><ellipse cx="264.5" cy="689.5313" fill="#84BE84" rx="3" ry="3" style="stroke:#038048;stroke-width:1.0;"/><text fill="#000000" font-family="sans-serif" font-size="11" lengthAdjust="spacing" textLength="79" x="273.5" y="693.9502">setxPointsNum()</text><ellipse cx="264.5" cy="703.3672" fill="#84BE84" rx="3" ry="3" style="stroke:#038048;stroke-width:1.0;"/><text fill="#000000" font-family="sans-serif" font-size="11" lengthAdjust="spacing" textLength="49" x="273.5" y="707.7861">setyMax()</text><ellipse cx="264.5" cy="717.2031" fill="#84BE84" rx="3" ry="3" style="stroke:#038048;stroke-width:1.0;"/><text fill="#000000" font-family="sans-serif" font-size="11" lengthAdjust="spacing" textLength="45" x="273.5" y="721.6221">setyMin()</text><ellipse cx="264.5" cy="731.0391" fill="#84BE84" rx="3" ry="3" style="stroke:#038048;stroke-width:1.0;"/><text fill="#000000" font-family="sans-serif" font-size="11" lengthAdjust="spacing" textLength="79" x="273.5" y="735.458">setyPointsNum()</text><!--MD5=[1341a8d7974b61dd3a4b879c49913eb4]
class model.methods.solvers.particleswarm.ParticleSwamEstimator--><rect codeLine="72" fill="#FEFECE" filter="url(#f1hc4pnc4vrpyi)" height="75.6719" id="model.methods.solvers.particleswarm.ParticleSwamEstimator" style="stroke:#A80036;stroke-width:1.5;" width="161" x="201.5" y="152.5"/><ellipse cx="216.5" cy="168.5" fill="#ADD1B2" rx="11" ry="11" style="stroke:#A80036;stroke-width:1.0;"/><path d="M218.5,165 Q218.7031,164.5 218.9375,164.25 Q219.1719,164 219.4375,164 Q219.9063,164 220.2031,164.2813 Q220.5,164.5625 220.5,165.2188 L220.5,166.7813 Q220.5,167.4375 220.2188,167.7188 Q219.9375,168 219.5,168 Q219.1094,168 218.8594,167.8281 Q218.6094,167.6563 218.5,167.2031 Q218.4531,166.8906 218.2813,166.7188 Q217.9688,166.3906 217.4063,166.2031 Q216.8438,166 216.2813,166 Q215.5781,166 214.9844,166.2813 Q214.4063,166.5625 213.9531,167.1875 Q213.5,167.8125 213.5,168.6719 L213.5,169.5938 Q213.5,170.625 214.3438,171.3125 Q215.1875,172 216.6875,172 Q217.5781,172 218.2031,171.7969 Q218.5625,171.6875 218.9688,171.3281 Q219.2344,171.125 219.375,171.0625 Q219.5156,171 219.6875,171 Q220.0156,171 220.25,171.2656 Q220.5,171.5156 220.5,171.875 Q220.5,172.2188 220.1563,172.625 Q219.6563,173.2188 218.8594,173.5469 Q217.8125,174 216.5313,174 Q215.0313,174 213.8281,173.4063 Q212.8594,172.9375 212.1719,171.9219 Q211.5,170.9063 211.5,169.7031 L211.5,168.6094 Q211.5,167.3594 212.0938,166.2656 Q212.7031,165.1719 213.75,164.5938 Q214.8125,164 216,164 Q216.7188,164 217.3438,164.25 Q217.9688,164.5 218.5,165 Z " fill="#000000"/><text fill="#000000" font-family="sans-serif" font-size="12" lengthAdjust="spacing" textLength="129" x="230.5" y="173.4102">ParticleSwamEstimator</text><line style="stroke:#A80036;stroke-width:1.5;" x1="202.5" x2="361.5" y1="184.5" y2="184.5"/><line style="stroke:#A80036;stroke-width:1.5;" x1="202.5" x2="361.5" y1="192.5" y2="192.5"/><ellipse cx="212.5" cy="203.5" fill="#84BE84" rx="3" ry="3" style="stroke:#038048;stroke-width:1.0;"/><text fill="#000000" font-family="sans-serif" font-size="11" lengthAdjust="spacing" textLength="118" x="221.5" y="207.9189">ParticleSwamEstimator()</text><ellipse cx="212.5" cy="217.3359" fill="#84BE84" rx="3" ry="3" style="stroke:#038048;stroke-width:1.0;"/><text fill="#000000" font-family="sans-serif" font-size="11" lengthAdjust="spacing" textLength="48" x="221.5" y="221.7549">estimate()</text><!--MD5=[1eaf54b87fa37311239b9f045f3cf76e]
class model.methods.solvers.particleswarm.Point--><rect codeLine="81" fill="#FEFECE" filter="url(#f1hc4pnc4vrpyi)" height="297.0469" id="model.methods.solvers.particleswarm.Point" style="stroke:#A80036;stroke-width:1.5;" width="134" x="32" y="42"/><ellipse cx="80.75" cy="58" fill="#ADD1B2" rx="11" ry="11" style="stroke:#A80036;stroke-width:1.0;"/><path d="M82.75,54.5 Q82.9531,54 83.1875,53.75 Q83.4219,53.5 83.6875,53.5 Q84.1563,53.5 84.4531,53.7813 Q84.75,54.0625 84.75,54.7188 L84.75,56.2813 Q84.75,56.9375 84.4688,57.2188 Q84.1875,57.5 83.75,57.5 Q83.3594,57.5 83.1094,57.3281 Q82.8594,57.1563 82.75,56.7031 Q82.7031,56.3906 82.5313,56.2188 Q82.2188,55.8906 81.6563,55.7031 Q81.0938,55.5 80.5313,55.5 Q79.8281,55.5 79.2344,55.7813 Q78.6563,56.0625 78.2031,56.6875 Q77.75,57.3125 77.75,58.1719 L77.75,59.0938 Q77.75,60.125 78.5938,60.8125 Q79.4375,61.5 80.9375,61.5 Q81.8281,61.5 82.4531,61.2969 Q82.8125,61.1875 83.2188,60.8281 Q83.4844,60.625 83.625,60.5625 Q83.7656,60.5 83.9375,60.5 Q84.2656,60.5 84.5,60.7656 Q84.75,61.0156 84.75,61.375 Q84.75,61.7188 84.4063,62.125 Q83.9063,62.7188 83.1094,63.0469 Q82.0625,63.5 80.7813,63.5 Q79.2813,63.5 78.0781,62.9063 Q77.1094,62.4375 76.4219,61.4219 Q75.75,60.4063 75.75,59.2031 L75.75,58.1094 Q75.75,56.8594 76.3438,55.7656 Q76.9531,54.6719 78,54.0938 Q79.0625,53.5 80.25,53.5 Q80.9688,53.5 81.5938,53.75 Q82.2188,54 82.75,54.5 Z " fill="#000000"/><text fill="#000000" font-family="sans-serif" font-size="12" lengthAdjust="spacing" textLength="28" x="101.25" y="62.9102">Point</text><line style="stroke:#A80036;stroke-width:1.5;" x1="33" x2="165" y1="74" y2="74"/><polygon fill="none" points="43,81,39,87,47,87" style="stroke:#1963A0;stroke-width:1.0;"/><text fill="#000000" font-family="sans-serif" font-size="11" lengthAdjust="spacing" textLength="66" x="52" y="89.4189">Ccog : double</text><polygon fill="none" points="43,94.8359,39,100.8359,47,100.8359" style="stroke:#1963A0;stroke-width:1.0;"/><text fill="#000000" font-family="sans-serif" font-size="11" lengthAdjust="spacing" textLength="56" x="52" y="103.2549">Cin : double</text><polygon fill="none" points="43,108.6719,39,114.6719,47,114.6719" style="stroke:#1963A0;stroke-width:1.0;"/><text fill="#000000" font-family="sans-serif" font-size="11" lengthAdjust="spacing" textLength="66" x="52" y="117.0908">Csoc : double</text><polygon fill="none" points="43,122.5078,39,128.5078,47,128.5078" style="stroke:#1963A0;stroke-width:1.0;"/><text fill="#000000" font-family="sans-serif" font-size="11" lengthAdjust="spacing" textLength="93" x="52" y="130.9268">fBestLocal : double</text><polygon fill="none" points="43,136.3438,39,142.3438,47,142.3438" style="stroke:#1963A0;stroke-width:1.0;"/><text fill="#000000" font-family="sans-serif" font-size="11" lengthAdjust="spacing" textLength="108" x="52" y="144.7627">functionValue : double</text><polygon fill="none" points="43,150.1797,39,156.1797,47,156.1797" style="stroke:#1963A0;stroke-width:1.0;"/><text fill="#000000" font-family="sans-serif" font-size="11" lengthAdjust="spacing" textLength="47" x="52" y="158.5986">x : double</text><polygon fill="none" points="43,164.0156,39,170.0156,47,170.0156" style="stroke:#1963A0;stroke-width:1.0;"/><text fill="#000000" font-family="sans-serif" font-size="11" lengthAdjust="spacing" textLength="95" x="52" y="172.4346">xBestLocal : double</text><polygon fill="none" points="43,177.8516,39,183.8516,47,183.8516" style="stroke:#1963A0;stroke-width:1.0;"/><text fill="#000000" font-family="sans-serif" font-size="11" lengthAdjust="spacing" textLength="63" x="52" y="186.2705">xVel : double</text><polygon fill="none" points="43,191.6875,39,197.6875,47,197.6875" style="stroke:#1963A0;stroke-width:1.0;"/><text fill="#000000" font-family="sans-serif" font-size="11" lengthAdjust="spacing" textLength="47" x="52" y="200.1064">y : double</text><polygon fill="none" points="43,205.5234,39,211.5234,47,211.5234" style="stroke:#1963A0;stroke-width:1.0;"/><text fill="#000000" font-family="sans-serif" font-size="11" lengthAdjust="spacing" textLength="95" x="52" y="213.9424">yBestLocal : double</text><polygon fill="none" points="43,219.3594,39,225.3594,47,225.3594" style="stroke:#1963A0;stroke-width:1.0;"/><text fill="#000000" font-family="sans-serif" font-size="11" lengthAdjust="spacing" textLength="63" x="52" y="227.7783">yVel : double</text><line style="stroke:#A80036;stroke-width:1.5;" x1="33" x2="165" y1="234.1953" y2="234.1953"/><ellipse cx="43" cy="245.1953" fill="#84BE84" rx="3" ry="3" style="stroke:#038048;stroke-width:1.0;"/><text fill="#000000" font-family="sans-serif" font-size="11" lengthAdjust="spacing" textLength="31" x="52" y="249.6143">Point()</text><ellipse cx="43" cy="259.0313" fill="#84BE84" rx="3" ry="3" style="stroke:#038048;stroke-width:1.0;"/><text fill="#000000" font-family="sans-serif" font-size="11" lengthAdjust="spacing" textLength="35" x="52" y="263.4502">getFv()</text><ellipse cx="43" cy="272.8672" fill="#84BE84" rx="3" ry="3" style="stroke:#038048;stroke-width:1.0;"/><text fill="#000000" font-family="sans-serif" font-size="11" lengthAdjust="spacing" textLength="30" x="52" y="277.2861">getX()</text><ellipse cx="43" cy="286.7031" fill="#84BE84" rx="3" ry="3" style="stroke:#038048;stroke-width:1.0;"/><text fill="#000000" font-family="sans-serif" font-size="11" lengthAdjust="spacing" textLength="31" x="52" y="291.1221">getY()</text><ellipse cx="43" cy="300.5391" fill="#84BE84" rx="3" ry="3" style="stroke:#038048;stroke-width:1.0;"/><text fill="#000000" font-family="sans-serif" font-size="11" lengthAdjust="spacing" textLength="92" x="52" y="304.958">setFunctionValue()</text><ellipse cx="43" cy="314.375" fill="#84BE84" rx="3" ry="3" style="stroke:#038048;stroke-width:1.0;"/><text fill="#000000" font-family="sans-serif" font-size="11" lengthAdjust="spacing" textLength="60" x="52" y="318.7939">setPosition()</text><ellipse cx="43" cy="328.2109" fill="#84BE84" rx="3" ry="3" style="stroke:#038048;stroke-width:1.0;"/><text fill="#000000" font-family="sans-serif" font-size="11" lengthAdjust="spacing" textLength="78" x="52" y="332.6299">updatePosition()</text><!--MD5=[b47b4cf4ee923fd1424686aaafee81b8]
reverse link model.methods.solvers.particleswarm.ParticleSwam to model.methods.solvers.particleswarm.LeastSquaresFunction--><path codeLine="104" d="M163.03,810.31 C167.42,833.64 171.58,855.8 175.13,874.68 " fill="none" id="model.methods.solvers.particleswarm.ParticleSwam-backto-model.methods.solvers.particleswarm.LeastSquaresFunction" style="stroke:#A80036;stroke-width:1.0;"/><polygon fill="#FFFFFF" points="160.57,797.23,157.7456,803.865,162.7838,809.024,165.6083,802.3891,160.57,797.23" style="stroke:#A80036;stroke-width:1.0;"/><text fill="#000000" font-family="sans-serif" font-size="13" lengthAdjust="spacing" textLength="3" x="168" y="841.4951">f</text><!--MD5=[6fff5ddeb646f42b340f13f4b4f505ec]
reverse link model.methods.solvers.particleswarm.ParticleSwamBuilder to model.methods.solvers.particleswarm.LeastSquaresFunction--><path codeLine="105" d="M263.61,753.89 C244.99,796.74 225.71,841.12 211.02,874.92 " fill="none" id="model.methods.solvers.particleswarm.ParticleSwamBuilder-backto-model.methods.solvers.particleswarm.LeastSquaresFunction" style="stroke:#A80036;stroke-width:1.0;"/><polygon fill="#FFFFFF" points="268.84,741.86,262.7795,745.7678,264.0558,752.8651,270.1162,748.9573,268.84,741.86" style="stroke:#A80036;stroke-width:1.0;"/><text fill="#000000" font-family="sans-serif" font-size="13" lengthAdjust="spacing" textLength="3" x="232" y="841.4951">f</text><!--MD5=[9dca807823075272108cab1e5598cbae]
reverse link model.methods.solvers.particleswarm.ParticleSwamEstimator to model.methods.solvers.particleswarm.ParticleSwam--><path codeLine="106" d="M263.26,240.97 C246.6,284.96 221.14,352.18 196.59,416.99 " fill="none" id="model.methods.solvers.particleswarm.ParticleSwamEstimator-backto-model.methods.solvers.particleswarm.ParticleSwam" style="stroke:#A80036;stroke-width:1.0;"/><polygon fill="#FFFFFF" points="267.93,228.65,262.0612,232.8401,263.6718,239.8691,269.5406,235.6789,267.93,228.65" style="stroke:#A80036;stroke-width:1.0;"/><text fill="#000000" font-family="sans-serif" font-size="13" lengthAdjust="spacing" textLength="34" x="213" y="383.4951">swam</text><!--MD5=[74db51c8696e3fdfad36227b0a174068]
@startuml


    namespace model.methods.solvers.particleswarm {
          class model.methods.solvers.particleswarm.LeastSquaresFunction {
              {static} + X : String
              {static} + Y : String
              - exception : Expression
              + of()
              - LeastSquaresFunction()
          }
        }


  


    namespace model.methods.solvers.particleswarm {
          class model.methods.solvers.particleswarm.ParticleSwam {
              ~ fBestTemp : double
              ~ globalBestFunctionValue : double
              ~ globalBestId : int
              ~ globalBestX : double
              ~ globalBestY : double
              ~ idBestTemp : int
              ~ maxIterations : int
              ~ points : Point[]
              ~ step : int
              ~ uniformRandom : Random
              ~ xBestTemp : double
              ~ xMax : double
              ~ xMin : double
              ~ xPointsNum : int
              ~ yBestTemp : double
              ~ yMax : double
              ~ yMin : double
              ~ yPointsNum : int
              + ParticleSwam()
              + calculateFull()
              + clear()
              + fitClearPoints()
              + hasNext()
              + next()


      }
    }


    namespace model.methods.solvers.particleswarm {
          class model.methods.solvers.particleswarm.ParticleSwamBuilder {
              - maxIterations : int
              - xMax : double
              - xMin : double
              - xPointsNum : int
              - yMax : double
              - yMin : double
              - yPointsNum : int
              + ParticleSwamBuilder()
              + build()
              + setMaxIterations()
              + setxMax()
              + setxMin()
              + setxPointsNum()
              + setyMax()
              + setyMin()
              + setyPointsNum()
          }
        }
  

    namespace model.methods.solvers.particleswarm {
          class model.methods.solvers.particleswarm.ParticleSwamEstimator {
              + ParticleSwamEstimator()
              + estimate()
          }
        }
    
  

    namespace model.methods.solvers.particleswarm {
          class model.methods.solvers.particleswarm.Point {
              ~ Ccog : double
              ~ Cin : double
              ~ Csoc : double
              ~ fBestLocal : double
              ~ functionValue : double
              ~ x : double
              ~ xBestLocal : double
              ~ xVel : double
              ~ y : double
              ~ yBestLocal : double
              ~ yVel : double
              + Point()
              + getFv()
              + getX()
              + getY()
              + setFunctionValue()
              + setPosition()
              + updatePosition()
          }
        }
  

  model.methods.solvers.particleswarm.ParticleSwam o- - model.methods.solvers.particleswarm.LeastSquaresFunction : f
  model.methods.solvers.particleswarm.ParticleSwamBuilder o- - model.methods.solvers.particleswarm.LeastSquaresFunction : f
  model.methods.solvers.particleswarm.ParticleSwamEstimator o- - model.methods.solvers.particleswarm.ParticleSwam : swam


@enduml

PlantUML version 1.2021.2(Sun Mar 07 18:10:27 GMT+07:00 2021)
(GPL source distribution)
Java Runtime: OpenJDK Runtime Environment
JVM: OpenJDK 64-Bit Server VM
Default Encoding: Cp1251
Language: ru
Country: RU
--></g></svg>