<?xml version="1.0" encoding="UTF-8" standalone="no"?><svg xmlns="http://www.w3.org/2000/svg" xmlns:xlink="http://www.w3.org/1999/xlink" contentScriptType="application/ecmascript" contentStyleType="text/css" height="474px" preserveAspectRatio="none" style="width:279px;height:474px;" version="1.1" viewBox="0 0 279 474" width="279px" zoomAndPan="magnify"><defs><filter height="300%" id="f1tb9ng4j0f4vf" width="300%" x="-1" y="-1"><feGaussianBlur result="blurOut" stdDeviation="2.0"/><feColorMatrix in="blurOut" result="blurOut2" type="matrix" values="0 0 0 0 0 0 0 0 0 0 0 0 0 0 0 0 0 0 .4 0"/><feOffset dx="4.0" dy="4.0" in="blurOut2" result="blurOut3"/><feBlend in="SourceGraphic" in2="blurOut3" mode="normal"/></filter></defs><g><!--MD5=[85dcde9f2c424395083176eb5a88bee8]
cluster model.core--><polygon fill="#FFFFFF" filter="url(#f1tb9ng4j0f4vf)" points="16,6,101,6,108,29.6094,262,29.6094,262,467,16,467,16,6" style="stroke:#000000;stroke-width:1.5;"/><line style="stroke:#000000;stroke-width:1.5;" x1="16" x2="108" y1="29.6094" y2="29.6094"/><text fill="#000000" font-family="sans-serif" font-size="14" font-weight="bold" lengthAdjust="spacing" textLength="79" x="20" y="22.5332">model.core</text><!--MD5=[424267a6d2b97d4359a336e61fc1f6ee]
class model.core.Beacon--><rect codeLine="2" fill="#FEFECE" filter="url(#f1tb9ng4j0f4vf)" height="186.3594" id="model.core.Beacon" style="stroke:#A80036;stroke-width:1.5;" width="74" x="167" y="42"/><ellipse cx="182" cy="58" fill="#EB937F" rx="11" ry="11" style="stroke:#A80036;stroke-width:1.0;"/><path d="M180.5,59 L180.5,61 L184.5,61 L184.5,60 L184.5,59.5156 L185.125,59 L185.5,59 L185.875,59 L186.5,59.5156 L186.5,60 L186.5,63 L178.5,63 L178.0156,63 L177.5,62.375 L177.5,62 L177.5,61.625 L178.0156,61 L178.5,61 L178.5,61 L178.5,55 L178.5,55 L178.0156,55 L177.5,54.375 L177.5,54 L177.5,53.625 L178.0156,53 L178.5,53 L186.5,53 L186.5,56 L186.5,56.4844 L185.875,57 L185.5,57 L185.125,57 L184.5,56.4844 L184.5,56 L184.5,55 L180.5,55 L180.5,57 L181.5,57 L181.5,56.5156 L181.5,56.5156 L182.125,56 L182.5,56 L182.875,56 L183.5,56.5156 L183.5,57 L183.5,59 L183.5,59.4844 L182.875,60 L182.875,60 L182.5,60 L182.125,60 L181.5,59.4844 L181.5,59.4844 L181.5,59 L180.5,59 Z " fill="#000000"/><text fill="#000000" font-family="sans-serif" font-size="12" lengthAdjust="spacing" textLength="42" x="196" y="62.9102">Beacon</text><line style="stroke:#A80036;stroke-width:1.5;" x1="168" x2="240" y1="74" y2="74"/><text fill="#000000" font-family="sans-serif" font-size="11" lengthAdjust="spacing" textLength="25" x="173" y="89.4189">MAIN</text><text fill="#000000" font-family="sans-serif" font-size="11" lengthAdjust="spacing" textLength="47" x="173" y="103.2549">SLAVE_1</text><text fill="#000000" font-family="sans-serif" font-size="11" lengthAdjust="spacing" textLength="47" x="173" y="117.0908">SLAVE_2</text><text fill="#000000" font-family="sans-serif" font-size="11" lengthAdjust="spacing" textLength="47" x="173" y="130.9268">SLAVE_3</text><text fill="#000000" font-family="sans-serif" font-size="11" lengthAdjust="spacing" textLength="41" x="173" y="144.7627">TARGET</text><text fill="#000000" font-family="sans-serif" font-size="11" lengthAdjust="spacing" textLength="8" x="173" y="158.5986">id</text><text fill="#000000" font-family="sans-serif" font-size="11" lengthAdjust="spacing" textLength="20" x="173" y="172.4346">mac</text><text fill="#000000" font-family="sans-serif" font-size="11" lengthAdjust="spacing" textLength="6" x="173" y="186.2705">x</text><text fill="#000000" font-family="sans-serif" font-size="11" lengthAdjust="spacing" textLength="6" x="173" y="200.1064">y</text><text fill="#000000" font-family="sans-serif" font-size="11" lengthAdjust="spacing" textLength="6" x="173" y="213.9424">z</text><line style="stroke:#A80036;stroke-width:1.5;" x1="168" x2="240" y1="220.3594" y2="220.3594"/><!--MD5=[036a5e50a69a1a977d1ab01856d1ff09]
class model.core.Dimensions--><rect codeLine="15" fill="#FEFECE" filter="url(#f1tb9ng4j0f4vf)" height="158.6875" id="model.core.Dimensions" style="stroke:#A80036;stroke-width:1.5;" width="100" x="32" y="55.5"/><ellipse cx="47" cy="71.5" fill="#ADD1B2" rx="11" ry="11" style="stroke:#A80036;stroke-width:1.0;"/><path d="M49,68 Q49.2031,67.5 49.4375,67.25 Q49.6719,67 49.9375,67 Q50.4063,67 50.7031,67.2813 Q51,67.5625 51,68.2188 L51,69.7813 Q51,70.4375 50.7188,70.7188 Q50.4375,71 50,71 Q49.6094,71 49.3594,70.8281 Q49.1094,70.6563 49,70.2031 Q48.9531,69.8906 48.7813,69.7188 Q48.4688,69.3906 47.9063,69.2031 Q47.3438,69 46.7813,69 Q46.0781,69 45.4844,69.2813 Q44.9063,69.5625 44.4531,70.1875 Q44,70.8125 44,71.6719 L44,72.5938 Q44,73.625 44.8438,74.3125 Q45.6875,75 47.1875,75 Q48.0781,75 48.7031,74.7969 Q49.0625,74.6875 49.4688,74.3281 Q49.7344,74.125 49.875,74.0625 Q50.0156,74 50.1875,74 Q50.5156,74 50.75,74.2656 Q51,74.5156 51,74.875 Q51,75.2188 50.6563,75.625 Q50.1563,76.2188 49.3594,76.5469 Q48.3125,77 47.0313,77 Q45.5313,77 44.3281,76.4063 Q43.3594,75.9375 42.6719,74.9219 Q42,73.9063 42,72.7031 L42,71.6094 Q42,70.3594 42.5938,69.2656 Q43.2031,68.1719 44.25,67.5938 Q45.3125,67 46.5,67 Q47.2188,67 47.8438,67.25 Q48.4688,67.5 49,68 Z " fill="#000000"/><text fill="#000000" font-family="sans-serif" font-size="12" lengthAdjust="spacing" textLength="68" x="61" y="76.4102">Dimensions</text><line style="stroke:#A80036;stroke-width:1.5;" x1="33" x2="131" y1="87.5" y2="87.5"/><ellipse cx="43" cy="98.5" rx="3" ry="3" style="stroke:#038048;stroke-width:1.0;fill:none;"/><text fill="#000000" font-family="sans-serif" font-size="11" lengthAdjust="spacing" textLength="51" x="52" y="102.9189">fv : double</text><ellipse cx="43" cy="112.3359" rx="3" ry="3" style="stroke:#038048;stroke-width:1.0;fill:none;"/><text fill="#000000" font-family="sans-serif" font-size="11" lengthAdjust="spacing" textLength="47" x="52" y="116.7549">x : double</text><ellipse cx="43" cy="126.1719" rx="3" ry="3" style="stroke:#038048;stroke-width:1.0;fill:none;"/><text fill="#000000" font-family="sans-serif" font-size="11" lengthAdjust="spacing" textLength="47" x="52" y="130.5908">y : double</text><ellipse cx="43" cy="140.0078" rx="3" ry="3" style="stroke:#038048;stroke-width:1.0;fill:none;"/><text fill="#000000" font-family="sans-serif" font-size="11" lengthAdjust="spacing" textLength="47" x="52" y="144.4268">z : double</text><line style="stroke:#A80036;stroke-width:1.5;" x1="33" x2="131" y1="150.8438" y2="150.8438"/><ellipse cx="43" cy="161.8438" fill="#84BE84" rx="3" ry="3" style="stroke:#038048;stroke-width:1.0;"/><text fill="#000000" font-family="sans-serif" font-size="11" lengthAdjust="spacing" textLength="63" x="52" y="166.2627">Dimensions()</text><ellipse cx="43" cy="175.6797" fill="#84BE84" rx="3" ry="3" style="stroke:#038048;stroke-width:1.0;"/><text fill="#000000" font-family="sans-serif" font-size="11" lengthAdjust="spacing" textLength="23" x="52" y="180.0986">set()</text><ellipse cx="43" cy="189.5156" fill="#84BE84" rx="3" ry="3" style="stroke:#038048;stroke-width:1.0;"/><text fill="#000000" font-family="sans-serif" font-size="11" lengthAdjust="spacing" textLength="23" x="52" y="193.9346">set()</text><ellipse cx="43" cy="203.3516" fill="#84BE84" rx="3" ry="3" style="stroke:#038048;stroke-width:1.0;"/><text fill="#000000" font-family="sans-serif" font-size="11" lengthAdjust="spacing" textLength="45" x="52" y="207.7705">toString()</text><!--MD5=[384c6f6149e8184e8fc88d4f9de2efd1]
class model.core.MacAddress--><rect codeLine="26" fill="#FEFECE" filter="url(#f1tb9ng4j0f4vf)" height="144.8516" id="model.core.MacAddress" style="stroke:#A80036;stroke-width:1.5;" width="214" x="32" y="306"/><ellipse cx="100.75" cy="322" fill="#ADD1B2" rx="11" ry="11" style="stroke:#A80036;stroke-width:1.0;"/><path d="M102.75,318.5 Q102.9531,318 103.1875,317.75 Q103.4219,317.5 103.6875,317.5 Q104.1563,317.5 104.4531,317.7813 Q104.75,318.0625 104.75,318.7188 L104.75,320.2813 Q104.75,320.9375 104.4688,321.2188 Q104.1875,321.5 103.75,321.5 Q103.3594,321.5 103.1094,321.3281 Q102.8594,321.1563 102.75,320.7031 Q102.7031,320.3906 102.5313,320.2188 Q102.2188,319.8906 101.6563,319.7031 Q101.0938,319.5 100.5313,319.5 Q99.8281,319.5 99.2344,319.7813 Q98.6563,320.0625 98.2031,320.6875 Q97.75,321.3125 97.75,322.1719 L97.75,323.0938 Q97.75,324.125 98.5938,324.8125 Q99.4375,325.5 100.9375,325.5 Q101.8281,325.5 102.4531,325.2969 Q102.8125,325.1875 103.2188,324.8281 Q103.4844,324.625 103.625,324.5625 Q103.7656,324.5 103.9375,324.5 Q104.2656,324.5 104.5,324.7656 Q104.75,325.0156 104.75,325.375 Q104.75,325.7188 104.4063,326.125 Q103.9063,326.7188 103.1094,327.0469 Q102.0625,327.5 100.7813,327.5 Q99.2813,327.5 98.0781,326.9063 Q97.1094,326.4375 96.4219,325.4219 Q95.75,324.4063 95.75,323.2031 L95.75,322.1094 Q95.75,320.8594 96.3438,319.7656 Q96.9531,318.6719 98,318.0938 Q99.0625,317.5 100.25,317.5 Q100.9688,317.5 101.5938,317.75 Q102.2188,318 102.75,318.5 Z " fill="#000000"/><text fill="#000000" font-family="sans-serif" font-size="12" lengthAdjust="spacing" textLength="68" x="121.25" y="326.9102">MacAddress</text><line style="stroke:#A80036;stroke-width:1.5;" x1="33" x2="245" y1="338" y2="338"/><ellipse cx="43" cy="349" rx="3" ry="3" style="stroke:#038048;stroke-width:1.0;fill:none;"/><text fill="#000000" font-family="sans-serif" font-size="11" lengthAdjust="spacing" textLength="85" x="52" y="353.4189">macString : String</text><ellipse cx="43" cy="362.8359" rx="3" ry="3" style="stroke:#038048;stroke-width:1.0;fill:none;"/><text fill="#000000" font-family="sans-serif" font-size="11" lengthAdjust="spacing" text-decoration="underline" textLength="188" x="52" y="367.2549">macs : HashMap&lt;String, MacAddress&gt;</text><line style="stroke:#A80036;stroke-width:1.5;" x1="33" x2="245" y1="373.6719" y2="373.6719"/><ellipse cx="43" cy="384.6719" fill="#84BE84" rx="3" ry="3" style="stroke:#038048;stroke-width:1.0;"/><text fill="#000000" font-family="sans-serif" font-size="11" lengthAdjust="spacing" textLength="70" x="52" y="389.0908">MacAddress()</text><ellipse cx="43" cy="398.5078" fill="#84BE84" rx="3" ry="3" style="stroke:#038048;stroke-width:1.0;"/><text fill="#000000" font-family="sans-serif" font-size="11" lengthAdjust="spacing" textLength="40" x="52" y="402.9268">equals()</text><ellipse cx="43" cy="412.3438" fill="#84BE84" rx="3" ry="3" style="stroke:#038048;stroke-width:1.0;"/><text fill="#000000" font-family="sans-serif" font-size="11" lengthAdjust="spacing" text-decoration="underline" textLength="43" x="52" y="416.7627">getMac()</text><ellipse cx="43" cy="426.1797" fill="#84BE84" rx="3" ry="3" style="stroke:#038048;stroke-width:1.0;"/><text fill="#000000" font-family="sans-serif" font-size="11" lengthAdjust="spacing" textLength="57" x="52" y="430.5986">hashCode()</text><polygon fill="#4177AF" points="43,436.0156,39,442.0156,47,442.0156" style="stroke:#1963A0;stroke-width:1.0;"/><text fill="#000000" font-family="sans-serif" font-size="11" lengthAdjust="spacing" textLength="67" x="52" y="444.4346">toByteArray()</text><!--MD5=[bcde3f380c696953a4c791d5e4a45567]
reverse link model.core.Beacon to model.core.MacAddress--><path codeLine="38" d="M175.71,241.11 C169.82,262.98 163.75,285.54 158.28,305.87 " fill="none" id="model.core.Beacon-backto-model.core.MacAddress" style="stroke:#A80036;stroke-width:1.0;"/><polygon fill="#FFFFFF" points="179.15,228.33,173.7296,233.086,176.0351,239.9187,181.4554,235.1626,179.15,228.33" style="stroke:#A80036;stroke-width:1.0;"/><text fill="#000000" font-family="sans-serif" font-size="13" lengthAdjust="spacing" textLength="25" x="170" y="272.4951">mac</text><!--MD5=[a3362614a1d0069d08cac86b4303f9aa]
@startuml

        enum  model.core.Beacon {
          MAIN
          SLAVE_1
          SLAVE_2
          SLAVE_3
          TARGET
          id
          mac
          x
          y
          z
        }
   
        class model.core.Dimensions {
            + fv : double
            + x : double
            + y : double
            + z : double
            + Dimensions()
            + set()
            + set()
            + toString()
        }
   
        class model.core.MacAddress {
            + macString : String
            {static} + macs : HashMap<String, MacAddress>
            + MacAddress()
            + equals()
            {static} + getMac()
            + hashCode()
            ~ toByteArray()
        }
    
  

  model.core.Beacon o- - model.core.MacAddress : mac


@enduml

PlantUML version 1.2021.2(Sun Mar 07 18:10:27 GMT+07:00 2021)
(GPL source distribution)
Java Runtime: OpenJDK Runtime Environment
JVM: OpenJDK 64-Bit Server VM
Default Encoding: Cp1251
Language: ru
Country: RU
--></g></svg>