<?xml version="1.0" encoding="UTF-8" standalone="no"?><svg xmlns="http://www.w3.org/2000/svg" xmlns:xlink="http://www.w3.org/1999/xlink" contentScriptType="application/ecmascript" contentStyleType="text/css" height="733.5px" preserveAspectRatio="none" style="width:387px;height:733px;" version="1.1" viewBox="0 0 387 733" width="387px" zoomAndPan="magnify"><defs><filter height="300%" id="fg1xrmit4pl57" width="300%" x="-1" y="-1"><feGaussianBlur result="blurOut" stdDeviation="1.8"/><feColorMatrix in="blurOut" result="blurOut2" type="matrix" values="0 0 0 0 0 0 0 0 0 0 0 0 0 0 0 0 0 0 .4 0"/><feOffset dx="3.6" dy="3.6" in="blurOut2" result="blurOut3"/><feBlend in="SourceGraphic" in2="blurOut3" mode="normal"/></filter></defs><g><!--MD5=[c2f840b6fc390ed8bc8b6917d27b3207]
cluster comport--><polygon fill="#FFFFFF" filter="url(#fg1xrmit4pl57)" points="19.8,125.1,77.4,125.1,83.7,146.3484,371.7,146.3484,371.7,727.2,19.8,727.2,19.8,125.1" style="stroke:#000000;stroke-width:1.35;"/><line style="stroke:#000000;stroke-width:1.35;" x1="19.8" x2="83.7" y1="146.3484" y2="146.3484"/><text fill="#000000" font-family="sans-serif" font-size="12.6" font-weight="bold" lengthAdjust="spacing" textLength="52.2" x="23.4" y="139.9799">comport</text><!--MD5=[e4652204c6547946804073ab55f0df46]
cluster com.fazecast.jSerialComm--><polygon fill="#FFFFFF" filter="url(#fg1xrmit4pl57)" points="14.4,5.4,183.6,5.4,189.9,26.6484,192.6,26.6484,192.6,95.4,14.4,95.4,14.4,5.4" style="stroke:#000000;stroke-width:1.35;"/><line style="stroke:#000000;stroke-width:1.35;" x1="14.4" x2="189.9" y1="26.6484" y2="26.6484"/><text fill="#000000" font-family="sans-serif" font-size="12.6" font-weight="bold" lengthAdjust="spacing" textLength="163.8" x="18" y="20.2799">com.fazecast.jSerialComm</text><!--MD5=[832da6f1daefddcc91bbf56062989a20]
class comport.ComPortConstants--><rect codeLine="3" fill="#FEFECE" filter="url(#fg1xrmit4pl57)" height="205.0805" id="comport.ComPortConstants" style="stroke:#A80036;stroke-width:1.35;" width="152.1" x="204.75" y="207.45"/><ellipse cx="230.805" cy="221.85" fill="#ADD1B2" rx="9.9" ry="9.9" style="stroke:#A80036;stroke-width:0.9;"/><path d="M232.605,218.7 Q232.7878,218.25 232.9988,218.025 Q233.2097,217.8 233.4488,217.8 Q233.8706,217.8 234.1378,218.0531 Q234.405,218.3063 234.405,218.8969 L234.405,220.3031 Q234.405,220.8938 234.1519,221.1469 Q233.8988,221.4 233.505,221.4 Q233.1534,221.4 232.9284,221.2453 Q232.7034,221.0906 232.605,220.6828 Q232.5628,220.4016 232.4081,220.2469 Q232.1269,219.9516 231.6206,219.7828 Q231.1144,219.6 230.6081,219.6 Q229.9753,219.6 229.4409,219.8531 Q228.9206,220.1063 228.5128,220.6688 Q228.105,221.2313 228.105,222.0047 L228.105,222.8344 Q228.105,223.7625 228.8644,224.3813 Q229.6238,225 230.9738,225 Q231.7753,225 232.3378,224.8172 Q232.6613,224.7188 233.0269,224.3953 Q233.2659,224.2125 233.3925,224.1563 Q233.5191,224.1 233.6737,224.1 Q233.9691,224.1 234.18,224.3391 Q234.405,224.5641 234.405,224.8875 Q234.405,225.1969 234.0956,225.5625 Q233.6456,226.0969 232.9284,226.3922 Q231.9862,226.8 230.8331,226.8 Q229.4831,226.8 228.4003,226.2656 Q227.5284,225.8438 226.9097,224.9297 Q226.305,224.0156 226.305,222.9328 L226.305,221.9484 Q226.305,220.8234 226.8394,219.8391 Q227.3878,218.8547 228.33,218.3344 Q229.2863,217.8 230.355,217.8 Q231.0019,217.8 231.5644,218.025 Q232.1269,218.25 232.605,218.7 Z " fill="#000000"/><text fill="#000000" font-family="sans-serif" font-size="10.8" lengthAdjust="spacing" textLength="95.4" x="246.195" y="226.2691">ComPortConstants</text><line style="stroke:#A80036;stroke-width:1.35;" x1="205.65" x2="355.95" y1="236.25" y2="236.25"/><ellipse cx="214.65" cy="246.15" rx="2.7" ry="2.7" style="stroke:#038048;stroke-width:0.9;fill:none;"/><text fill="#000000" font-family="sans-serif" font-size="9.9" lengthAdjust="spacing" text-decoration="underline" textLength="80.1" x="222.75" y="250.1271">CAPACITY : char[]</text><ellipse cx="214.65" cy="258.6023" rx="2.7" ry="2.7" style="stroke:#038048;stroke-width:0.9;fill:none;"/><text fill="#000000" font-family="sans-serif" font-size="9.9" lengthAdjust="spacing" text-decoration="underline" textLength="91.8" x="222.75" y="262.5794">DEVICE_MAC : char[]</text><ellipse cx="214.65" cy="271.0547" rx="2.7" ry="2.7" style="stroke:#038048;stroke-width:0.9;fill:none;"/><text fill="#000000" font-family="sans-serif" font-size="9.9" lengthAdjust="spacing" text-decoration="underline" textLength="64.8" x="222.75" y="275.0317">ERROR : char[]</text><ellipse cx="214.65" cy="283.507" rx="2.7" ry="2.7" style="stroke:#038048;stroke-width:0.9;fill:none;"/><text fill="#000000" font-family="sans-serif" font-size="9.9" lengthAdjust="spacing" text-decoration="underline" textLength="79.2" x="222.75" y="287.4841">PAYLOAD : char[]</text><ellipse cx="214.65" cy="295.9594" rx="2.7" ry="2.7" style="stroke:#038048;stroke-width:0.9;fill:none;"/><text fill="#000000" font-family="sans-serif" font-size="9.9" lengthAdjust="spacing" text-decoration="underline" textLength="105.3" x="222.75" y="299.9364">PAYLOAD_LENGTH : int</text><ellipse cx="214.65" cy="308.4117" rx="2.7" ry="2.7" style="stroke:#038048;stroke-width:0.9;fill:none;"/><text fill="#000000" font-family="sans-serif" font-size="9.9" lengthAdjust="spacing" text-decoration="underline" textLength="65.7" x="222.75" y="312.3888">READY : char[]</text><ellipse cx="214.65" cy="320.8641" rx="2.7" ry="2.7" style="stroke:#038048;stroke-width:0.9;fill:none;"/><text fill="#000000" font-family="sans-serif" font-size="9.9" lengthAdjust="spacing" text-decoration="underline" textLength="86.4" x="222.75" y="324.8411">RELOADING : char[]</text><ellipse cx="214.65" cy="333.3164" rx="2.7" ry="2.7" style="stroke:#038048;stroke-width:0.9;fill:none;"/><text fill="#000000" font-family="sans-serif" font-size="9.9" lengthAdjust="spacing" text-decoration="underline" textLength="53.1" x="222.75" y="337.2935">SIZE : char[]</text><ellipse cx="214.65" cy="345.7688" rx="2.7" ry="2.7" style="stroke:#038048;stroke-width:0.9;fill:none;"/><text fill="#000000" font-family="sans-serif" font-size="9.9" lengthAdjust="spacing" text-decoration="underline" textLength="71.1" x="222.75" y="349.7458">SLAVES : char[]</text><ellipse cx="214.65" cy="358.2211" rx="2.7" ry="2.7" style="stroke:#038048;stroke-width:0.9;fill:none;"/><text fill="#000000" font-family="sans-serif" font-size="9.9" lengthAdjust="spacing" text-decoration="underline" textLength="116.1" x="222.75" y="362.1981">TARGET_SET_END : char[]</text><ellipse cx="214.65" cy="370.6734" rx="2.7" ry="2.7" style="stroke:#038048;stroke-width:0.9;fill:none;"/><text fill="#000000" font-family="sans-serif" font-size="9.9" lengthAdjust="spacing" text-decoration="underline" textLength="128.7" x="222.75" y="374.6505">TARGET_SET_START : char[]</text><ellipse cx="214.65" cy="383.1258" rx="2.7" ry="2.7" style="stroke:#038048;stroke-width:0.9;fill:none;"/><text fill="#000000" font-family="sans-serif" font-size="9.9" lengthAdjust="spacing" text-decoration="underline" textLength="76.5" x="222.75" y="387.1028">TIME_END : char[]</text><ellipse cx="214.65" cy="395.5781" rx="2.7" ry="2.7" style="stroke:#038048;stroke-width:0.9;fill:none;"/><text fill="#000000" font-family="sans-serif" font-size="9.9" lengthAdjust="spacing" text-decoration="underline" textLength="89.1" x="222.75" y="399.5552">TIME_START : char[]</text><line style="stroke:#A80036;stroke-width:1.35;" x1="205.65" x2="355.95" y1="405.3305" y2="405.3305"/><!--MD5=[1acb45948f06f3a1549ab70bfe66998d]
class comport.ComPortListener--><rect codeLine="23" fill="#FEFECE" filter="url(#fg1xrmit4pl57)" height="180.1758" id="comport.ComPortListener" style="stroke:#A80036;stroke-width:1.35;" width="147.6" x="34.2" y="532.8"/><ellipse cx="63.09" cy="547.2" fill="#ADD1B2" rx="9.9" ry="9.9" style="stroke:#A80036;stroke-width:0.9;"/><path d="M64.89,544.05 Q65.0728,543.6 65.2838,543.375 Q65.4947,543.15 65.7338,543.15 Q66.1556,543.15 66.4228,543.4031 Q66.69,543.6563 66.69,544.2469 L66.69,545.6531 Q66.69,546.2438 66.4369,546.4969 Q66.1838,546.75 65.79,546.75 Q65.4384,546.75 65.2134,546.5953 Q64.9884,546.4406 64.89,546.0328 Q64.8478,545.7516 64.6931,545.5969 Q64.4119,545.3016 63.9056,545.1328 Q63.3994,544.95 62.8931,544.95 Q62.2603,544.95 61.7259,545.2031 Q61.2056,545.4563 60.7978,546.0188 Q60.39,546.5813 60.39,547.3547 L60.39,548.1844 Q60.39,549.1125 61.1494,549.7313 Q61.9088,550.35 63.2588,550.35 Q64.0603,550.35 64.6228,550.1672 Q64.9462,550.0688 65.3119,549.7453 Q65.5509,549.5625 65.6775,549.5063 Q65.8041,549.45 65.9588,549.45 Q66.2541,549.45 66.465,549.6891 Q66.69,549.9141 66.69,550.2375 Q66.69,550.5469 66.3806,550.9125 Q65.9306,551.4469 65.2134,551.7422 Q64.2713,552.15 63.1181,552.15 Q61.7681,552.15 60.6853,551.6156 Q59.8134,551.1938 59.1947,550.2797 Q58.59,549.3656 58.59,548.2828 L58.59,547.2984 Q58.59,546.1734 59.1244,545.1891 Q59.6728,544.2047 60.615,543.6844 Q61.5713,543.15 62.64,543.15 Q63.2869,543.15 63.8494,543.375 Q64.4119,543.6 64.89,544.05 Z " fill="#000000"/><text fill="#000000" font-family="sans-serif" font-size="10.8" lengthAdjust="spacing" textLength="84.6" x="79.11" y="551.6191">ComPortListener</text><line style="stroke:#A80036;stroke-width:1.35;" x1="35.1" x2="180.9" y1="561.6" y2="561.6"/><ellipse cx="44.1" cy="571.5" rx="2.7" ry="2.7" style="stroke:#038048;stroke-width:0.9;fill:none;"/><text fill="#000000" font-family="sans-serif" font-size="9.9" lengthAdjust="spacing" textLength="124.2" x="52.2" y="575.4771">log : DataPropagator&lt;String&gt;</text><polygon fill="none" points="44.1,580.3523,40.5,585.7523,47.7,585.7523" style="stroke:#1963A0;stroke-width:0.9;"/><text fill="#000000" font-family="sans-serif" font-size="9.9" lengthAdjust="spacing" textLength="107.1" x="52.2" y="587.9294">model : LiveData&lt;Model&gt;</text><line style="stroke:#A80036;stroke-width:1.35;" x1="35.1" x2="180.9" y1="593.7047" y2="593.7047"/><ellipse cx="44.1" cy="603.6047" fill="#84BE84" rx="2.7" ry="2.7" style="stroke:#038048;stroke-width:0.9;"/><text fill="#000000" font-family="sans-serif" font-size="9.9" lengthAdjust="spacing" textLength="78.3" x="52.2" y="607.5817">ComPortListener()</text><ellipse cx="44.1" cy="616.057" fill="#84BE84" rx="2.7" ry="2.7" style="stroke:#038048;stroke-width:0.9;"/><text fill="#000000" font-family="sans-serif" font-size="9.9" lengthAdjust="spacing" textLength="39.6" x="52.2" y="620.0341">onError()</text><ellipse cx="44.1" cy="628.5094" fill="#84BE84" rx="2.7" ry="2.7" style="stroke:#038048;stroke-width:0.9;"/><text fill="#000000" font-family="sans-serif" font-size="9.9" lengthAdjust="spacing" textLength="52.2" x="52.2" y="632.4864">onPayload()</text><ellipse cx="44.1" cy="640.9617" fill="#84BE84" rx="2.7" ry="2.7" style="stroke:#038048;stroke-width:0.9;"/><text fill="#000000" font-family="sans-serif" font-size="9.9" lengthAdjust="spacing" textLength="45.9" x="52.2" y="644.9388">onReady()</text><ellipse cx="44.1" cy="653.4141" fill="#84BE84" rx="2.7" ry="2.7" style="stroke:#038048;stroke-width:0.9;"/><text fill="#000000" font-family="sans-serif" font-size="9.9" lengthAdjust="spacing" textLength="62.1" x="52.2" y="657.3911">onRestarting()</text><ellipse cx="44.1" cy="665.8664" fill="#84BE84" rx="2.7" ry="2.7" style="stroke:#038048;stroke-width:0.9;"/><text fill="#000000" font-family="sans-serif" font-size="9.9" lengthAdjust="spacing" textLength="81" x="52.2" y="669.8435">onSlavesNumber()</text><ellipse cx="44.1" cy="678.3188" fill="#84BE84" rx="2.7" ry="2.7" style="stroke:#038048;stroke-width:0.9;"/><text fill="#000000" font-family="sans-serif" font-size="9.9" lengthAdjust="spacing" textLength="65.7" x="52.2" y="682.2958">onTargetsSet()</text><ellipse cx="44.1" cy="690.7711" fill="#84BE84" rx="2.7" ry="2.7" style="stroke:#038048;stroke-width:0.9;"/><text fill="#000000" font-family="sans-serif" font-size="9.9" lengthAdjust="spacing" textLength="54" x="52.2" y="694.7481">onTerminal()</text><ellipse cx="44.1" cy="703.2234" fill="#84BE84" rx="2.7" ry="2.7" style="stroke:#038048;stroke-width:0.9;"/><text fill="#000000" font-family="sans-serif" font-size="9.9" lengthAdjust="spacing" textLength="33.3" x="52.2" y="707.2005">println()</text><!--MD5=[96fb346262c457fc1a4fc1a588830f20]
class comport.ComReader--><rect codeLine="41" fill="#FEFECE" filter="url(#fg1xrmit4pl57)" height="304.6992" id="comport.ComReader" style="stroke:#A80036;stroke-width:1.35;" width="138.6" x="34.2" y="157.5"/><ellipse cx="69.57" cy="171.9" fill="#ADD1B2" rx="9.9" ry="9.9" style="stroke:#A80036;stroke-width:0.9;"/><path d="M71.37,168.75 Q71.5528,168.3 71.7638,168.075 Q71.9747,167.85 72.2138,167.85 Q72.6356,167.85 72.9028,168.1031 Q73.17,168.3563 73.17,168.9469 L73.17,170.3531 Q73.17,170.9438 72.9169,171.1969 Q72.6638,171.45 72.27,171.45 Q71.9184,171.45 71.6934,171.2953 Q71.4684,171.1406 71.37,170.7328 Q71.3278,170.4516 71.1731,170.2969 Q70.8919,170.0016 70.3856,169.8328 Q69.8794,169.65 69.3731,169.65 Q68.7403,169.65 68.2059,169.9031 Q67.6856,170.1563 67.2778,170.7188 Q66.87,171.2813 66.87,172.0547 L66.87,172.8844 Q66.87,173.8125 67.6294,174.4313 Q68.3888,175.05 69.7388,175.05 Q70.5403,175.05 71.1028,174.8672 Q71.4263,174.7688 71.7919,174.4453 Q72.0309,174.2625 72.1575,174.2063 Q72.2841,174.15 72.4388,174.15 Q72.7341,174.15 72.945,174.3891 Q73.17,174.6141 73.17,174.9375 Q73.17,175.2469 72.8606,175.6125 Q72.4106,176.1469 71.6934,176.4422 Q70.7513,176.85 69.5981,176.85 Q68.2481,176.85 67.1653,176.3156 Q66.2934,175.8938 65.6747,174.9797 Q65.07,174.0656 65.07,172.9828 L65.07,171.9984 Q65.07,170.8734 65.6044,169.8891 Q66.1528,168.9047 67.095,168.3844 Q68.0513,167.85 69.12,167.85 Q69.7669,167.85 70.3294,168.075 Q70.8919,168.3 71.37,168.75 Z " fill="#000000"/><text fill="#000000" font-family="sans-serif" font-size="10.8" lengthAdjust="spacing" textLength="61.2" x="87.03" y="176.3191">ComReader</text><line style="stroke:#A80036;stroke-width:1.35;" x1="35.1" x2="171.9" y1="186.3" y2="186.3"/><ellipse cx="44.1" cy="196.2" rx="2.7" ry="2.7" style="stroke:#038048;stroke-width:0.9;fill:none;"/><text fill="#000000" font-family="sans-serif" font-size="9.9" lengthAdjust="spacing" text-decoration="underline" textLength="111.6" x="52.2" y="200.1771">DEFAULT_CAPACITY : int</text><ellipse cx="44.1" cy="208.6523" rx="2.7" ry="2.7" style="stroke:#038048;stroke-width:0.9;fill:none;"/><text fill="#000000" font-family="sans-serif" font-size="9.9" lengthAdjust="spacing" text-decoration="underline" textLength="82.8" x="52.2" y="212.6294">listeningEvents : int</text><rect fill="none" height="5.4" style="stroke:#C82930;stroke-width:0.9;" width="5.4" x="41.4" y="218.4047"/><text fill="#000000" font-family="sans-serif" font-size="9.9" lengthAdjust="spacing" textLength="91.8" x="52.2" y="225.0817">builder : StringBuilder</text><rect fill="none" height="5.4" style="stroke:#C82930;stroke-width:0.9;" width="5.4" x="41.4" y="230.857"/><text fill="#000000" font-family="sans-serif" font-size="9.9" lengthAdjust="spacing" textLength="115.2" x="52.2" y="237.5341">capacityBuf : StringBuilder</text><rect fill="none" height="5.4" style="stroke:#C82930;stroke-width:0.9;" width="5.4" x="41.4" y="243.3094"/><text fill="#000000" font-family="sans-serif" font-size="9.9" lengthAdjust="spacing" textLength="100.8" x="52.2" y="249.9864">isOnNewLine : boolean</text><rect fill="none" height="5.4" style="stroke:#C82930;stroke-width:0.9;" width="5.4" x="41.4" y="255.7617"/><text fill="#000000" font-family="sans-serif" font-size="9.9" lengthAdjust="spacing" textLength="83.7" x="52.2" y="262.4388">isOpened : boolean</text><rect fill="none" height="5.4" style="stroke:#C82930;stroke-width:0.9;" width="5.4" x="41.4" y="268.2141"/><text fill="#000000" font-family="sans-serif" font-size="9.9" lengthAdjust="spacing" textLength="101.7" x="52.2" y="274.8911">macsBuf : StringBuilder</text><rect fill="none" height="5.4" style="stroke:#C82930;stroke-width:0.9;" width="5.4" x="41.4" y="280.6664"/><text fill="#000000" font-family="sans-serif" font-size="9.9" lengthAdjust="spacing" textLength="54" x="52.2" y="287.3435">portNum : int</text><rect fill="none" height="5.4" style="stroke:#C82930;stroke-width:0.9;" width="5.4" x="41.4" y="293.1188"/><text fill="#000000" font-family="sans-serif" font-size="9.9" lengthAdjust="spacing" textLength="90" x="52.2" y="299.7958">serialPort : SerialPort</text><rect fill="none" height="5.4" style="stroke:#C82930;stroke-width:0.9;" width="5.4" x="41.4" y="305.5711"/><text fill="#000000" font-family="sans-serif" font-size="9.9" lengthAdjust="spacing" textLength="96.3" x="52.2" y="312.2481">sizeBuf : StringBuilder</text><rect fill="none" height="5.4" style="stroke:#C82930;stroke-width:0.9;" width="5.4" x="41.4" y="318.0234"/><text fill="#000000" font-family="sans-serif" font-size="9.9" lengthAdjust="spacing" textLength="59.4" x="52.2" y="324.7005">timeEnd : long</text><rect fill="none" height="5.4" style="stroke:#C82930;stroke-width:0.9;" width="5.4" x="41.4" y="330.4758"/><text fill="#000000" font-family="sans-serif" font-size="9.9" lengthAdjust="spacing" textLength="63.9" x="52.2" y="337.1528">timeStart : long</text><line style="stroke:#A80036;stroke-width:1.35;" x1="35.1" x2="171.9" y1="342.9281" y2="342.9281"/><ellipse cx="44.1" cy="352.8281" fill="#84BE84" rx="2.7" ry="2.7" style="stroke:#038048;stroke-width:0.9;"/><text fill="#000000" font-family="sans-serif" font-size="9.9" lengthAdjust="spacing" textLength="57.6" x="52.2" y="356.8052">ComReader()</text><ellipse cx="44.1" cy="365.2805" fill="#84BE84" rx="2.7" ry="2.7" style="stroke:#038048;stroke-width:0.9;"/><text fill="#000000" font-family="sans-serif" font-size="9.9" lengthAdjust="spacing" textLength="31.5" x="52.2" y="369.2575">about()</text><ellipse cx="44.1" cy="377.7328" fill="#84BE84" rx="2.7" ry="2.7" style="stroke:#038048;stroke-width:0.9;"/><text fill="#000000" font-family="sans-serif" font-size="9.9" lengthAdjust="spacing" textLength="30.6" x="52.2" y="381.7099">close()</text><ellipse cx="44.1" cy="390.1852" fill="#84BE84" rx="2.7" ry="2.7" style="stroke:#038048;stroke-width:0.9;"/><text fill="#000000" font-family="sans-serif" font-size="9.9" lengthAdjust="spacing" textLength="89.1" x="52.2" y="394.1622">getListeningEvents()</text><ellipse cx="44.1" cy="402.6375" fill="#84BE84" rx="2.7" ry="2.7" style="stroke:#038048;stroke-width:0.9;"/><text fill="#000000" font-family="sans-serif" font-size="9.9" lengthAdjust="spacing" textLength="56.7" x="52.2" y="406.6146">getPortNum()</text><ellipse cx="44.1" cy="415.0898" fill="#84BE84" rx="2.7" ry="2.7" style="stroke:#038048;stroke-width:0.9;"/><text fill="#000000" font-family="sans-serif" font-size="9.9" lengthAdjust="spacing" textLength="48.6" x="52.2" y="419.0669">isOpened()</text><ellipse cx="44.1" cy="427.5422" fill="#84BE84" rx="2.7" ry="2.7" style="stroke:#038048;stroke-width:0.9;"/><text fill="#000000" font-family="sans-serif" font-size="9.9" lengthAdjust="spacing" textLength="28.8" x="52.2" y="431.5192">open()</text><ellipse cx="44.1" cy="439.9945" fill="#84BE84" rx="2.7" ry="2.7" style="stroke:#038048;stroke-width:0.9;"/><text fill="#000000" font-family="sans-serif" font-size="9.9" lengthAdjust="spacing" textLength="54.9" x="52.2" y="443.9716">serialEvent()</text><polygon fill="#4177AF" points="44.1,448.8469,40.5,454.2469,47.7,454.2469" style="stroke:#1963A0;stroke-width:0.9;"/><text fill="#000000" font-family="sans-serif" font-size="9.9" lengthAdjust="spacing" textLength="58.5" x="52.2" y="456.4239">getPortsList()</text><!--MD5=[8f6847bbd0c43336441f055b1c441540]
class com.fazecast.jSerialComm.SerialPortDataListener--><rect fill="#FEFECE" filter="url(#fg1xrmit4pl57)" height="43.2" id="com.fazecast.jSerialComm.SerialPortDataListener" style="stroke:#A80036;stroke-width:1.35;" width="141.3" x="32.85" y="37.8"/><ellipse cx="46.35" cy="52.2" fill="#ADD1B2" rx="9.9" ry="9.9" style="stroke:#A80036;stroke-width:0.9;"/><path d="M48.15,49.05 Q48.3328,48.6 48.5438,48.375 Q48.7547,48.15 48.9938,48.15 Q49.4156,48.15 49.6828,48.4031 Q49.95,48.6563 49.95,49.2469 L49.95,50.6531 Q49.95,51.2438 49.6969,51.4969 Q49.4438,51.75 49.05,51.75 Q48.6984,51.75 48.4734,51.5953 Q48.2484,51.4406 48.15,51.0328 Q48.1078,50.7516 47.9531,50.5969 Q47.6719,50.3016 47.1656,50.1328 Q46.6594,49.95 46.1531,49.95 Q45.5203,49.95 44.9859,50.2031 Q44.4656,50.4563 44.0578,51.0188 Q43.65,51.5813 43.65,52.3547 L43.65,53.1844 Q43.65,54.1125 44.4094,54.7313 Q45.1688,55.35 46.5188,55.35 Q47.3203,55.35 47.8828,55.1672 Q48.2063,55.0688 48.5719,54.7453 Q48.8109,54.5625 48.9375,54.5063 Q49.0641,54.45 49.2188,54.45 Q49.5141,54.45 49.725,54.6891 Q49.95,54.9141 49.95,55.2375 Q49.95,55.5469 49.6406,55.9125 Q49.1906,56.4469 48.4734,56.7422 Q47.5313,57.15 46.3781,57.15 Q45.0281,57.15 43.9453,56.6156 Q43.0734,56.1938 42.4547,55.2797 Q41.85,54.3656 41.85,53.2828 L41.85,52.2984 Q41.85,51.1734 42.3844,50.1891 Q42.9328,49.2047 43.875,48.6844 Q44.8313,48.15 45.9,48.15 Q46.5469,48.15 47.1094,48.375 Q47.6719,48.6 48.15,49.05 Z " fill="#000000"/><text fill="#000000" font-family="sans-serif" font-size="10.8" lengthAdjust="spacing" textLength="112.5" x="58.95" y="56.6191">SerialPortDataListener</text><line style="stroke:#A80036;stroke-width:1.35;" x1="33.75" x2="173.25" y1="66.6" y2="66.6"/><line style="stroke:#A80036;stroke-width:1.35;" x1="33.75" x2="173.25" y1="73.8" y2="73.8"/><!--MD5=[c037834b0d136aedb0268eab7bcb5798]
reverse link com.fazecast.jSerialComm.SerialPortDataListener to comport.ComReader--><path codeLine="68" d="M103.5,99.306 C103.5,115.695 103.5,135.909 103.5,157.257 " fill="none" id="com.fazecast.jSerialComm.SerialPortDataListener-backto-comport.ComReader" style="stroke:#A80036;stroke-width:0.9;stroke-dasharray:7.0,7.0;"/><polygon fill="none" points="97.2,99.09,103.5,81.09,109.8,99.09,97.2,99.09" style="stroke:#A80036;stroke-width:0.9;"/><!--MD5=[41be514f4c7d0493747a6af44d05cab3]
reverse link comport.ComReader to comport.ComPortListener--><path codeLine="69" d="M105.867,474.543 C106.155,494.496 106.443,514.278 106.704,532.557 " fill="none" id="comport.ComReader-backto-comport.ComPortListener" style="stroke:#A80036;stroke-width:0.9;"/><polygon fill="#FFFFFF" points="105.696,462.78,102.1795,468.2347,105.8621,473.5787,109.3786,468.124,105.696,462.78" style="stroke:#A80036;stroke-width:0.9;"/><text fill="#000000" font-family="sans-serif" font-size="11.7" lengthAdjust="spacing" textLength="85.5" x="107.1" y="502.6456">comPortListener</text><!--MD5=[35d44da819d9abd0f81ee46813f2198e]
@startuml

    namespace comport {
      class comport.ComPortConstants {
          {static} + CAPACITY : char[]
          {static} + DEVICE_MAC : char[]
          {static} + ERROR : char[]
          {static} + PAYLOAD : char[]
          {static} + PAYLOAD_LENGTH : int
          {static} + READY : char[]
          {static} + RELOADING : char[]
          {static} + SIZE : char[]
          {static} + SLAVES : char[]
          {static} + TARGET_SET_END : char[]
          {static} + TARGET_SET_START : char[]
          {static} + TIME_END : char[]
          {static} + TIME_START : char[]
      }
    }

  

    namespace comport {
      class comport.ComPortListener {
          + log : DataPropagator<String>
          ~ model : LiveData<Model>
          + ComPortListener()
          + onError()
          + onPayload()
          + onReady()
          + onRestarting()
          + onSlavesNumber()
          + onTargetsSet()
          + onTerminal()
          + println()
      }
    }

  

    namespace comport {
      class comport.ComReader {
          {static} + DEFAULT_CAPACITY : int
          {static} + listeningEvents : int
          - builder : StringBuilder
          - capacityBuf : StringBuilder
          - isOnNewLine : boolean
          - isOpened : boolean
          - macsBuf : StringBuilder
          - portNum : int
          - serialPort : SerialPort
          - sizeBuf : StringBuilder
          - timeEnd : long
          - timeStart : long
          + ComReader()
          + about()
          + close()
          + getListeningEvents()
          + getPortNum()
          + isOpened()
          + open()
          + serialEvent()
          ~ getPortsList()
      }

  }
  

  comport.ComReader .up.|> com.fazecast.jSerialComm.SerialPortDataListener
  comport.ComReader o- - comport.ComPortListener : comPortListener

@enduml

PlantUML version 1.2021.2(Sun Mar 07 18:10:27 GMT+07:00 2021)
(GPL source distribution)
Java Runtime: OpenJDK Runtime Environment
JVM: OpenJDK 64-Bit Server VM
Default Encoding: Cp1251
Language: ru
Country: RU
--></g></svg>